<?xml version="1.0" standalone="no"?>
<svg width="600" height="400" style="background-color: rgb(255, 255, 255);" xmlns="http://www.w3.org/2000/svg"><g transform="translate(20,20)"><g><circle class="dot" id="class_0" r="4" cx="55.36429308565531" cy="321.9982983385127" fill="#F1CE63"></circle><circle class="dot" id="class_0" r="4" cx="144.59442724458205" cy="352.71271548259625" fill="#F1CE63"></circle><circle class="dot" id="class_0" r="4" cx="258.90608875129" cy="353.15843625191053" fill="#F1CE63"></circle><circle class="dot" id="class_0" r="4" cx="104.48710010319917" cy="356.1326297984685" fill="#F1CE63"></circle><circle class="dot" id="class_0" r="4" cx="151.18266253869967" cy="358.8365534578856" fill="#F1CE63"></circle><circle class="dot" id="class_0" r="4" cx="153.95665634674927" cy="348.7384825273501" fill="#F1CE63"></circle><circle class="dot" id="class_0" r="4" cx="274.7409700722394" cy="356.2069336042988" fill="#F1CE63"></circle><circle class="dot" id="class_0" r="4" cx="145.4035087719298" cy="349.12163704257927" fill="#F1CE63"></circle><circle class="dot" id="class_0" r="4" cx="176.14860681114556" cy="349.2404414793738" fill="#F1CE63"></circle><circle class="dot" id="class_0" r="4" cx="151.0670794633643" cy="353.9728182116904" fill="#F1CE63"></circle><circle class="dot" id="class_0" r="4" cx="231.51289989680086" cy="338.21898245632934" fill="#F1CE63"></circle><circle class="dot" id="class_0" r="4" cx="144.47884416924666" cy="346.3260584138825" fill="#F1CE63"></circle><circle class="dot" id="class_0" r="4" cx="98.47678018575849" cy="357.881422942831" fill="#F1CE63"></circle><circle class="dot" id="class_0" r="4" cx="125.98555211558306" cy="359.1848015148813" fill="#F1CE63"></circle><circle class="dot" id="class_0" r="4" cx="117.89473684210523" cy="358.8109349753809" fill="#F1CE63"></circle><circle class="dot" id="class_0" r="4" cx="131.41795665634675" cy="307.3635105599691" fill="#F1CE63"></circle><circle class="dot" id="class_0" r="4" cx="203.65737874097007" cy="351.0600681968767" fill="#F1CE63"></circle><circle class="dot" id="class_0" r="4" cx="94.89370485036122" cy="356.5457916198984" fill="#F1CE63"></circle><circle class="dot" id="class_0" r="4" cx="72.81733746130028" cy="357.2715805804191" fill="#F1CE63"></circle><circle class="dot" id="class_0" r="4" cx="209.32094943240457" cy="353.41513140529395" fill="#F1CE63"></circle><circle class="dot" id="class_0" r="4" cx="212.32610939112487" cy="359.1653069724176" fill="#F1CE63"></circle><circle class="dot" id="class_0" r="4" cx="138.81527347781218" cy="356.30297739727445" fill="#F1CE63"></circle><circle class="dot" id="class_0" r="4" cx="134.5386996904025" cy="346.1745929635362" fill="#F1CE63"></circle><circle class="dot" id="class_0" r="4" cx="110.84416924664599" cy="358.5123928983843" fill="#F1CE63"></circle><circle class="dot" id="class_0" r="4" cx="92.46646026831787" cy="357.67657714846104" fill="#F1CE63"></circle><circle class="dot" id="class_0" r="4" cx="188.0536635706914" cy="353.2286574310468" fill="#F1CE63"></circle><circle class="dot" id="class_0" r="4" cx="363.1620227038184" cy="340.828393307781" fill="#F1CE63"></circle><circle class="dot" id="class_0" r="4" cx="78.71207430340561" cy="357.5002076752815" fill="#F1CE63"></circle><circle class="dot" id="class_0" r="4" cx="215.9091847265222" cy="333.3553492758016" fill="#F1CE63"></circle><circle class="dot" id="class_0" r="4" cx="107.83900928792569" cy="353.6723368870142" fill="#F1CE63"></circle><circle class="dot" id="class_0" r="4" cx="111.88441692466462" cy="351.610406275224" fill="#F1CE63"></circle><circle class="dot" id="class_0" r="4" cx="325.0196078431373" cy="332.5817935829614" fill="#F1CE63"></circle><circle class="dot" id="class_0" r="4" cx="162.62538699690404" cy="357.1291989744669" fill="#F1CE63"></circle><circle class="dot" id="class_0" r="4" cx="256.7100103199175" cy="353.35021764085985" fill="#F1CE63"></circle><circle class="dot" id="class_0" r="4" cx="139.73993808049534" cy="346.478748652237" fill="#F1CE63"></circle><circle class="dot" id="class_0" r="4" cx="59.29411764705886" cy="351.85771138721134" fill="#F1CE63"></circle><circle class="dot" id="class_0" r="4" cx="89.80804953560367" cy="349.57419621160597" fill="#F1CE63"></circle><circle class="dot" id="class_0" r="4" cx="240.875128998968" cy="306.28559504709335" fill="#F1CE63"></circle><circle class="dot" id="class_0" r="4" cx="170.94736842105263" cy="343.13773109722575" fill="#F1CE63"></circle><circle class="dot" id="class_0" r="4" cx="185.5108359133127" cy="348.30470344111563" fill="#F1CE63"></circle><circle class="dot" id="class_0" r="4" cx="178.57585139318883" cy="355.6528190962596" fill="#F1CE63"></circle><circle class="dot" id="class_0" r="4" cx="191.28998968008256" cy="352.565945052948" fill="#F1CE63"></circle><circle class="dot" id="class_0" r="4" cx="182.15892672858615" cy="354.8381309394776" fill="#F1CE63"></circle><circle class="dot" id="class_0" r="4" cx="195.2198142414861" cy="347.16371134581806" fill="#F1CE63"></circle><circle class="dot" id="class_0" r="4" cx="269.1929824561404" cy="357.51133283302255" fill="#F1CE63"></circle><circle class="dot" id="class_2" r="4" cx="216.71826625386998" cy="324.9522828829355" fill="#BAB0AC"></circle><circle class="dot" id="class_2" r="4" cx="313.80804953560374" cy="236.5928098706573" fill="#BAB0AC"></circle><circle class="dot" id="class_2" r="4" cx="119.16615067079468" cy="331.8273241699155" fill="#BAB0AC"></circle><circle class="dot" id="class_2" r="4" cx="253.35810113519096" cy="290.56411410828207" fill="#BAB0AC"></circle><circle class="dot" id="class_2" r="4" cx="467.99587203302383" cy="298.67588508653324" fill="#BAB0AC"></circle><circle class="dot" id="class_2" r="4" cx="215.1001031991744" cy="341.57286028542666" fill="#BAB0AC"></circle><circle class="dot" id="class_2" r="4" cx="378.18782249742003" cy="307.60060910522145" fill="#BAB0AC"></circle><circle class="dot" id="class_2" r="4" cx="212.0949432404541" cy="312.84811126064994" fill="#BAB0AC"></circle><circle class="dot" id="class_2" r="4" cx="213.48194014447884" cy="347.2043334814231" fill="#BAB0AC"></circle><circle class="dot" id="class_2" r="4" cx="153.84107327141388" cy="337.1405566151169" fill="#BAB0AC"></circle><circle class="dot" id="class_2" r="4" cx="186.08875128998972" cy="263.60908168967444" fill="#BAB0AC"></circle><circle class="dot" id="class_2" r="4" cx="232.66873065015486" cy="346.39087011264934" fill="#BAB0AC"></circle><circle class="dot" id="class_2" r="4" cx="215.1001031991744" cy="342.06940975708085" fill="#BAB0AC"></circle><circle class="dot" id="class_2" r="4" cx="73.16408668730648" cy="354.56020612728554" fill="#BAB0AC"></circle><circle class="dot" id="class_3" r="4" cx="427.88854489164095" cy="291.5975289901935" fill="#A0CBE8"></circle><circle class="dot" id="class_3" r="4" cx="419.45098039215685" cy="308.59166673518297" fill="#A0CBE8"></circle><circle class="dot" id="class_3" r="4" cx="383.9669762641899" cy="343.8173863761046" fill="#A0CBE8"></circle><circle class="dot" id="class_3" r="4" cx="167.13312693498455" cy="341.2726851577524" fill="#A0CBE8"></circle><circle class="dot" id="class_3" r="4" cx="303.9834881320949" cy="331.81783206285206" fill="#A0CBE8"></circle><circle class="dot" id="class_3" r="4" cx="495.0423116615068" cy="233.249444805297" fill="#A0CBE8"></circle><circle class="dot" id="class_3" r="4" cx="333.1104231166151" cy="318.77751413963887" fill="#A0CBE8"></circle><circle class="dot" id="class_3" r="4" cx="329.52734778121777" cy="338.402088263554" fill="#A0CBE8"></circle><circle class="dot" id="class_3" r="4" cx="386.04747162022704" cy="328.4420101152747" fill="#A0CBE8"></circle><circle class="dot" id="class_3" r="4" cx="412.40041279669765" cy="309.8673855113816" fill="#A0CBE8"></circle><circle class="dot" id="class_3" r="4" cx="287.91744066047465" cy="321.9351196904235" fill="#A0CBE8"></circle><circle class="dot" id="class_3" r="4" cx="266.8813209494324" cy="327.48187838252" fill="#A0CBE8"></circle><circle class="dot" id="class_3" r="4" cx="200.18988648090817" cy="335.36461400323947" fill="#A0CBE8"></circle><circle class="dot" id="class_3" r="4" cx="322.5923632610939" cy="340.46105897099096" fill="#A0CBE8"></circle><circle class="dot" id="class_3" r="4" cx="161.46955624355007" cy="344.71097129374755" fill="#A0CBE8"></circle><circle class="dot" id="class_3" r="4" cx="209.08978328173373" cy="339.79844865855944" fill="#A0CBE8"></circle><circle class="dot" id="class_3" r="4" cx="416.9081527347781" cy="310.69595459892304" fill="#A0CBE8"></circle><circle class="dot" id="class_3" r="4" cx="333.57275541795667" cy="317.64131913070673" fill="#A0CBE8"></circle><circle class="dot" id="class_3" r="4" cx="217.1805985552116" cy="329.73395733258184" fill="#A0CBE8"></circle><circle class="dot" id="class_3" r="4" cx="376.80082559339525" cy="331.0439701730098" fill="#A0CBE8"></circle><circle class="dot" id="class_3" r="4" cx="411.24458204334366" cy="342.30732482767206" fill="#A0CBE8"></circle><circle class="dot" id="class_3" r="4" cx="225.2714138286894" cy="317.09730912373504" fill="#A0CBE8"></circle><circle class="dot" id="class_3" r="4" cx="474.9308565531476" cy="316.9290028382761" fill="#A0CBE8"></circle><circle class="dot" id="class_3" r="4" cx="408.12383900928796" cy="313.93868291627695" fill="#A0CBE8"></circle><circle class="dot" id="class_3" r="4" cx="481.9814241486068" cy="177.37920882663892" fill="#A0CBE8"></circle><circle class="dot" id="class_3" r="4" cx="458.6336429308566" cy="304.4973024894667" fill="#A0CBE8"></circle><circle class="dot" id="class_4" r="4" cx="393.4447884416925" cy="340.2258996734182" fill="#D7B5A6"></circle><circle class="dot" id="class_4" r="4" cx="468.920536635707" cy="259.9666642189808" fill="#D7B5A6"></circle><circle class="dot" id="class_4" r="4" cx="478.9762641898866" cy="260.0404576964743" fill="#D7B5A6"></circle><circle class="dot" id="class_4" r="4" cx="371.25283797729617" cy="346.168979351832" fill="#D7B5A6"></circle><circle class="dot" id="class_4" r="4" cx="473.5438596491229" cy="324.51972858470924" fill="#D7B5A6"></circle><circle class="dot" id="class_4" r="4" cx="438.1754385964913" cy="309.3198032060527" fill="#D7B5A6"></circle><circle class="dot" id="class_4" r="4" cx="508.5655314757482" cy="244.80327834923528" fill="#D7B5A6"></circle><circle class="dot" id="class_4" r="4" cx="471.57894736842115" cy="275.49044396013653" fill="#D7B5A6"></circle><circle class="dot" id="class_4" r="4" cx="487.6449948400414" cy="258.32759166701874" fill="#D7B5A6"></circle><circle class="dot" id="class_4" r="4" cx="480.59442724458216" cy="239.47687943294585" fill="#D7B5A6"></circle><circle class="dot" id="class_4" r="4" cx="468.34262125903" cy="311.16862070441755" fill="#D7B5A6"></circle><circle class="dot" id="class_4" r="4" cx="460.9453044375646" cy="291.9085230786067" fill="#D7B5A6"></circle><circle class="dot" id="class_4" r="4" cx="530.295149638803" cy="261.9442885895404" fill="#D7B5A6"></circle><circle class="dot" id="class_4" r="4" cx="485.6800825593396" cy="300.3691545078578" fill="#D7B5A6"></circle><circle class="dot" id="class_4" r="4" cx="473.890608875129" cy="288.22864750799584" fill="#D7B5A6"></circle><circle class="dot" id="class_4" r="4" cx="472.27244582043335" cy="188.49120009662218" fill="#D7B5A6"></circle><circle class="dot" id="class_4" r="4" cx="375.7605779153767" cy="330.1564071297405" fill="#D7B5A6"></circle><circle class="dot" id="class_4" r="4" cx="467.3023735810114" cy="339.40682269294024" fill="#D7B5A6"></circle><circle class="dot" id="class_4" r="4" cx="396.44994840041284" cy="317.4197345668914" fill="#D7B5A6"></circle><circle class="dot" id="class_4" r="4" cx="521.9731682146544" cy="254.48420689731432" fill="#D7B5A6"></circle><circle class="dot" id="class_4" r="4" cx="524.4004127966977" cy="245.70635537394168" fill="#D7B5A6"></circle><circle class="dot" id="class_4" r="4" cx="458.2868937048504" cy="310.45079286595006" fill="#D7B5A6"></circle><circle class="dot" id="class_4" r="4" cx="416.561403508772" cy="320.0596630528805" fill="#D7B5A6"></circle><circle class="dot" id="class_4" r="4" cx="433.08978328173384" cy="318.49765007976714" fill="#D7B5A6"></circle><circle class="dot" id="class_4" r="4" cx="404.54076367389064" cy="301.38185005929734" fill="#D7B5A6"></circle><circle class="dot" id="class_4" r="4" cx="487.0670794633643" cy="289.34391905512143" fill="#D7B5A6"></circle><circle class="dot" id="class_4" r="4" cx="467.7647058823531" cy="290.50103752586017" fill="#D7B5A6"></circle><circle class="dot" id="class_4" r="4" cx="474.58410732714134" cy="315.9064069171037" fill="#D7B5A6"></circle><circle class="dot" id="class_4" r="4" cx="518.1589267285863" cy="240.8990624417907" fill="#D7B5A6"></circle><circle class="dot" id="class_4" r="4" cx="499.6656346749226" cy="168.36089059099143" fill="#D7B5A6"></circle><circle class="dot" id="class_4" r="4" cx="254.86068111455108" cy="335.6755060259853" fill="#D7B5A6"></circle><circle class="dot" id="class_4" r="4" cx="495.73581011351905" cy="238.7012824267587" fill="#D7B5A6"></circle><circle class="dot" id="class_1" r="4" cx="33.750257997936" cy="354.02354484836303" fill="#4E79A7"></circle><circle class="dot" id="class_1" r="4" cx="138.6996904024768" cy="355.95768924463187" fill="#4E79A7"></circle><circle class="dot" id="class_1" r="4" cx="164.47471620227037" cy="355.78417761013804" fill="#4E79A7"></circle><circle class="dot" id="class_1" r="4" cx="118.58823529411762" cy="356.34758009390606" fill="#4E79A7"></circle><circle class="dot" id="class_1" r="4" cx="244.68937048503616" cy="355.29426240686155" fill="#4E79A7"></circle><circle class="dot" id="class_1" r="4" cx="338.6584107327142" cy="351.9443651387909" fill="#4E79A7"></circle><circle class="dot" id="class_5" r="4" cx="493.3085655314758" cy="241.4506253081462" fill="#E15759"></circle><circle class="dot" id="class_5" r="4" cx="164.01238390092877" cy="357.88948613055163" fill="#E15759"></circle><circle class="dot" id="class_5" r="4" cx="39.52941176470587" cy="356.9373155198502" fill="#E15759"></circle><circle class="dot" id="class_5" r="4" cx="315.6573787409701" cy="342.1027852303041" fill="#E15759"></circle><circle class="dot" id="class_5" r="4" cx="440.48710010319917" cy="321.79467733215085" fill="#E15759"></circle><circle class="dot" id="class_5" r="4" cx="149.5644994840041" cy="354.36556689965045" fill="#E15759"></circle><circle class="dot" id="class_5" r="4" cx="457.593395252838" cy="306.86604249730874" fill="#E15759"></circle><circle class="dot" id="class_5" r="4" cx="314.6171310629515" cy="350.64006797573444" fill="#E15759"></circle><circle class="dot" id="class_5" r="4" cx="298.6666666666667" cy="351.2830816800349" fill="#E15759"></circle><circle class="dot" id="class_5" r="4" cx="297.1640866873065" cy="343.4497458423125" fill="#E15759"></circle><circle class="dot" id="class_5" r="4" cx="214.29102167182663" cy="352.71536918994735" fill="#E15759"></circle><circle class="dot" id="class_5" r="4" cx="178.92260061919504" cy="356.3932034472112" fill="#E15759"></circle><circle class="dot" id="class_5" r="4" cx="497.5851393188855" cy="232.07722061579054" fill="#E15759"></circle><circle class="dot" id="class_5" r="4" cx="118.24148606811143" cy="351.4561850518593" fill="#E15759"></circle><circle class="dot" id="class_5" r="4" cx="289.1888544891641" cy="346.71543893482004" fill="#E15759"></circle><circle class="dot" id="class_5" r="4" cx="419.91331269349854" cy="327.9199442267831" fill="#E15759"></circle><circle class="dot" id="class_5" r="4" cx="418.29514963880297" cy="342.63811965555107" fill="#E15759"></circle><circle class="dot" id="class_5" r="4" cx="303.63673890608874" cy="353.2925505388075" fill="#E15759"></circle><circle class="dot" id="class_5" r="4" cx="184.00825593395254" cy="355.7744813717399" fill="#E15759"></circle></g><g transform="translate(0,360)" fill="none" font-size="10" font-family="sans-serif" text-anchor="middle"><path class="domain" stroke="#000" d="M0.5,6V0.5H560.5V6"></path><g class="tick" opacity="1" transform="translate(21.18937048503611,0)"><line stroke="#000" y2="6"></line><text fill="#000" y="9" dy="0.71em">30</text></g><g class="tick" opacity="1" transform="translate(78.98090815273478,0)"><line stroke="#000" y2="6"></line><text fill="#000" y="9" dy="0.71em">35</text></g><g class="tick" opacity="1" transform="translate(136.77244582043343,0)"><line stroke="#000" y2="6"></line><text fill="#000" y="9" dy="0.71em">40</text></g><g class="tick" opacity="1" transform="translate(194.5639834881321,0)"><line stroke="#000" y2="6"></line><text fill="#000" y="9" dy="0.71em">45</text></g><g class="tick" opacity="1" transform="translate(252.35552115583076,0)"><line stroke="#000" y2="6"></line><text fill="#000" y="9" dy="0.71em">50</text></g><g class="tick" opacity="1" transform="translate(310.14705882352945,0)"><line stroke="#000" y2="6"></line><text fill="#000" y="9" dy="0.71em">55</text></g><g class="tick" opacity="1" transform="translate(367.9385964912281,0)"><line stroke="#000" y2="6"></line><text fill="#000" y="9" dy="0.71em">60</text></g><g class="tick" opacity="1" transform="translate(425.7301341589268,0)"><line stroke="#000" y2="6"></line><text fill="#000" y="9" dy="0.71em">65</text></g><g class="tick" opacity="1" transform="translate(483.52167182662544,0)"><line stroke="#000" y2="6"></line><text fill="#000" y="9" dy="0.71em">70</text></g><g class="tick" opacity="1" transform="translate(541.313209494324,0)"><line stroke="#000" y2="6"></line><text fill="#000" y="9" dy="0.71em">75</text></g></g><g fill="none" font-size="10" font-family="sans-serif" text-anchor="end"><path class="domain" stroke="#000" d="M-6,360.5H0.5V0.5H-6"></path><g class="tick" opacity="1" transform="translate(0,312.3551143830088)"><line stroke="#000" x2="-6"></line><text fill="#000" x="-9" dy="0.32em">5,000</text></g><g class="tick" opacity="1" transform="translate(0,261.32228070836976)"><line stroke="#000" x2="-6"></line><text fill="#000" x="-9" dy="0.32em">10,000</text></g><g class="tick" opacity="1" transform="translate(0,210.28944703373074)"><line stroke="#000" x2="-6"></line><text fill="#000" x="-9" dy="0.32em">15,000</text></g><g class="tick" opacity="1" transform="translate(0,159.25661335909172)"><line stroke="#000" x2="-6"></line><text fill="#000" x="-9" dy="0.32em">20,000</text></g><g class="tick" opacity="1" transform="translate(0,108.2237796844527)"><line stroke="#000" x2="-6"></line><text fill="#000" x="-9" dy="0.32em">25,000</text></g><g class="tick" opacity="1" transform="translate(0,57.19094600981367)"><line stroke="#000" x2="-6"></line><text fill="#000" x="-9" dy="0.32em">30,000</text></g><g class="tick" opacity="1" transform="translate(0,6.158112335174565)"><line stroke="#000" x2="-6"></line><text fill="#000" x="-9" dy="0.32em">35,000</text></g></g></g><text x="0" y="20">year-1960</text></svg>