<svg width="600" height="400" style="background-color: rgb(255, 255, 255);"><g transform="translate(50,20)"><g transform="translate(0,330)" fill="none" font-size="10" font-family="sans-serif" text-anchor="middle"><path class="domain" stroke="#000" d="M0.5,6V0.5H560.5V6"></path><g class="tick" opacity="1" transform="translate(46.666666666666664,0)"><line stroke="#000" y2="6"></line><text fill="#000" y="9" dy="0.71em">Sub-Saharan Africa</text></g><g class="tick" opacity="1" transform="translate(140,0)"><line stroke="#000" y2="6"></line><text fill="#000" y="9" dy="0.71em">South Asia</text></g><g class="tick" opacity="1" transform="translate(233.33333333333331,0)"><line stroke="#000" y2="6"></line><text fill="#000" y="9" dy="0.71em">Middle East &amp; North Africa</text></g><g class="tick" opacity="1" transform="translate(326.6666666666667,0)"><line stroke="#000" y2="6"></line><text fill="#000" y="9" dy="0.71em">America</text></g><g class="tick" opacity="1" transform="translate(420,0)"><line stroke="#000" y2="6"></line><text fill="#000" y="9" dy="0.71em">Europe &amp; Central Asia</text></g><g class="tick" opacity="1" transform="translate(513.3333333333333,0)"><line stroke="#000" y2="6"></line><text fill="#000" y="9" dy="0.71em">East Asia &amp; Pacific</text></g></g><g fill="none" font-size="10" font-family="sans-serif" text-anchor="end"><path class="domain" stroke="#000" d="M-6,330.5H0.5V0.5H-6"></path><g class="tick" opacity="1" transform="translate(0,330.5)"><line stroke="#000" x2="-6"></line><text fill="#000" x="-9" dy="0.32em">0.0</text></g><g class="tick" opacity="1" transform="translate(0,297.5)"><line stroke="#000" x2="-6"></line><text fill="#000" x="-9" dy="0.32em">0.1</text></g><g class="tick" opacity="1" transform="translate(0,264.5)"><line stroke="#000" x2="-6"></line><text fill="#000" x="-9" dy="0.32em">0.2</text></g><g class="tick" opacity="1" transform="translate(0,231.5)"><line stroke="#000" x2="-6"></line><text fill="#000" x="-9" dy="0.32em">0.3</text></g><g class="tick" opacity="1" transform="translate(0,198.5)"><line stroke="#000" x2="-6"></line><text fill="#000" x="-9" dy="0.32em">0.4</text></g><g class="tick" opacity="1" transform="translate(0,165.5)"><line stroke="#000" x2="-6"></line><text fill="#000" x="-9" dy="0.32em">0.5</text></g><g class="tick" opacity="1" transform="translate(0,132.5)"><line stroke="#000" x2="-6"></line><text fill="#000" x="-9" dy="0.32em">0.6</text></g><g class="tick" opacity="1" transform="translate(0,99.50000000000003)"><line stroke="#000" x2="-6"></line><text fill="#000" x="-9" dy="0.32em">0.7</text></g><g class="tick" opacity="1" transform="translate(0,66.5)"><line stroke="#000" x2="-6"></line><text fill="#000" x="-9" dy="0.32em">0.8</text></g><g class="tick" opacity="1" transform="translate(0,33.5)"><line stroke="#000" x2="-6"></line><text fill="#000" x="-9" dy="0.32em">0.9</text></g><g class="tick" opacity="1" transform="translate(0,0.5)"><line stroke="#000" x2="-6"></line><text fill="#000" x="-9" dy="0.32em">1.0</text></g></g><rect x="36.666666666666664" y="360" width="20" height="20" fill="rgb(133, 255, 156)"></rect><line x1="46.666666666666664" y1="278" x2="140" y2="237" style="stroke: rgb(0, 0, 0);"></line><circle id="circle_0" r="10" cx="46.666666666666664" cy="278" fill="rgb(133, 255, 156)" style="stroke: rgb(0, 0, 0);"></circle><rect x="130" y="360" width="20" height="20" fill="rgb(255, 160, 196)"></rect><line x1="140" y1="237" x2="233.33333333333331" y2="229" style="stroke: rgb(0, 0, 0);"></line><circle id="circle_1" r="10" cx="140" cy="237" fill="rgb(255, 160, 196)" style="stroke: rgb(0, 0, 0);"></circle><rect x="223.33333333333331" y="360" width="20" height="20" fill="rgb(116, 172, 207)"></rect><line x1="233.33333333333331" y1="229" x2="326.6666666666667" y2="87" style="stroke: rgb(0, 0, 0);"></line><circle id="circle_2" r="10" cx="233.33333333333331" cy="229" fill="rgb(116, 172, 207)" style="stroke: rgb(0, 0, 0);"></circle><rect x="316.6666666666667" y="360" width="20" height="20" fill="rgb(149, 54, 226)"></rect><line x1="326.6666666666667" y1="87" x2="420" y2="237" style="stroke: rgb(0, 0, 0);"></line><circle id="circle_3" r="10" cx="326.6666666666667" cy="87" fill="rgb(149, 54, 226)" style="stroke: rgb(0, 0, 0);"></circle><rect x="410" y="360" width="20" height="20" fill="rgb(255, 175, 120)"></rect><line x1="420" y1="237" x2="513.3333333333333" y2="259" style="stroke: rgb(0, 0, 0);"></line><circle id="circle_4" r="10" cx="420" cy="237" fill="rgb(255, 175, 120)" style="stroke: rgb(0, 0, 0);"></circle><rect x="503.33333333333326" y="360" width="20" height="20" fill="rgb(255, 228, 48)"></rect><circle id="circle_5" r="10" cx="513.3333333333333" cy="259" fill="rgb(255, 228, 48)" style="stroke: rgb(0, 0, 0);"></circle><circle id="circle_kappa" r="10" cx="0" cy="138.99999999999997" fill="#000" style="stroke: rgb(0, 0, 0);"></circle><line x1="0" y1="138.99999999999997" x2="560" y2="138.99999999999997" style="stroke: rgb(0, 0, 0); stroke-dasharray: 3, 3;"></line></g></svg>