<?xml version="1.0" standalone="no"?>
<svg width="600" height="400" style="background-color: rgb(255, 255, 255);" xmlns="http://www.w3.org/2000/svg"><g transform="translate(20,20)"><g><circle class="dot" id="class_0" r="4" cx="101.59752321981424" cy="305.20165765984405" fill="#8CD17D"></circle><circle class="dot" id="class_0" r="4" cx="199.26522187822502" cy="352.1999375698335" fill="#8CD17D"></circle><circle class="dot" id="class_0" r="4" cx="304.56140350877195" cy="347.2442411573566" fill="#8CD17D"></circle><circle class="dot" id="class_0" r="4" cx="153.37874097007222" cy="354.62318064404" fill="#8CD17D"></circle><circle class="dot" id="class_0" r="4" cx="179.96284829721364" cy="357.95491022332254" fill="#8CD17D"></circle><circle class="dot" id="class_0" r="4" cx="204.92879256965944" cy="346.1902090106406" fill="#8CD17D"></circle><circle class="dot" id="class_0" r="4" cx="326.7533539731682" cy="354.74004583315497" fill="#8CD17D"></circle><circle class="dot" id="class_0" r="4" cx="189.5562435500516" cy="350.47931454965936" fill="#8CD17D"></circle><circle class="dot" id="class_0" r="4" cx="225.50257997936015" cy="343.55375075734145" fill="#8CD17D"></circle><circle class="dot" id="class_0" r="4" cx="180.54076367389058" cy="353.72847300405624" fill="#8CD17D"></circle><circle class="dot" id="class_0" r="4" cx="302.94324045407643" cy="333.328608070956" fill="#8CD17D"></circle><circle class="dot" id="class_0" r="4" cx="217.0650154798762" cy="338.72655502005733" fill="#8CD17D"></circle><circle class="dot" id="class_0" r="4" cx="133.26728586171313" cy="354.1066263015853" fill="#8CD17D"></circle><circle class="dot" id="class_0" r="4" cx="174.41486068111453" cy="357.88285186217394" fill="#8CD17D"></circle><circle class="dot" id="class_0" r="4" cx="170.13828689370484" cy="357.377626808795" fill="#8CD17D"></circle><circle class="dot" id="class_0" r="4" cx="213.59752321981424" cy="263.9695776267521" fill="#8CD17D"></circle><circle class="dot" id="class_0" r="4" cx="239.02579979360166" cy="350.669156690929" fill="#8CD17D"></circle><circle class="dot" id="class_0" r="4" cx="126.56346749226003" cy="355.39928797856396" fill="#8CD17D"></circle><circle class="dot" id="class_0" r="4" cx="103.90918472652221" cy="354.6266508767299" fill="#8CD17D"></circle><circle class="dot" id="class_0" r="4" cx="276.82146542827655" cy="350.9417740884189" fill="#8CD17D"></circle><circle class="dot" id="class_0" r="4" cx="240.52837977296187" cy="357.9787935894822" fill="#8CD17D"></circle><circle class="dot" id="class_0" r="4" cx="187.5913312693498" cy="354.900186865226" fill="#8CD17D"></circle><circle class="dot" id="class_0" r="4" cx="180.65634674922606" cy="344.67810614886105" fill="#8CD17D"></circle><circle class="dot" id="class_0" r="4" cx="142.74509803921572" cy="357.8997947629539" fill="#8CD17D"></circle><circle class="dot" id="class_0" r="4" cx="107.49226006191948" cy="357.18176279315173" fill="#8CD17D"></circle><circle class="dot" id="class_0" r="4" cx="224.6934984520124" cy="346.51620675215423" fill="#8CD17D"></circle><circle class="dot" id="class_0" r="4" cx="392.8668730650155" cy="339.4898020804952" fill="#8CD17D"></circle><circle class="dot" id="class_0" r="4" cx="127.37254901960782" cy="355.81357252233465" fill="#8CD17D"></circle><circle class="dot" id="class_0" r="4" cx="281.4447884416925" cy="325.39126731820477" fill="#8CD17D"></circle><circle class="dot" id="class_0" r="4" cx="114.77399380804954" cy="352.72680054469043" fill="#8CD17D"></circle><circle class="dot" id="class_0" r="4" cx="140.5490196078431" cy="347.1468705107054" fill="#8CD17D"></circle><circle class="dot" id="class_0" r="4" cx="395.17853457172345" cy="316.02766092991465" fill="#8CD17D"></circle><circle class="dot" id="class_0" r="4" cx="187.12899896800826" cy="356.59682445357305" fill="#8CD17D"></circle><circle class="dot" id="class_0" r="4" cx="315.3106295149639" cy="347.0596043651218" fill="#8CD17D"></circle><circle class="dot" id="class_0" r="4" cx="166.43962848297213" cy="346.5862237999558" fill="#8CD17D"></circle><circle class="dot" id="class_0" r="4" cx="89.69246646026829" cy="348.3351190099857" fill="#8CD17D"></circle><circle class="dot" id="class_0" r="4" cx="136.8503611971104" cy="351.0218956372881" fill="#8CD17D"></circle><circle class="dot" id="class_0" r="4" cx="284.44994840041284" cy="284.6177683285131" fill="#8CD17D"></circle><circle class="dot" id="class_0" r="4" cx="210.13003095975233" cy="345.7495915246938" fill="#8CD17D"></circle><circle class="dot" id="class_0" r="4" cx="228.8544891640867" cy="331.12521444421986" fill="#8CD17D"></circle><circle class="dot" id="class_0" r="4" cx="213.59752321981424" cy="353.93127748507925" fill="#8CD17D"></circle><circle class="dot" id="class_0" r="4" cx="243.76470588235293" cy="346.97774769990764" fill="#8CD17D"></circle><circle class="dot" id="class_0" r="4" cx="250.00619195046445" cy="353.0797436223842" fill="#8CD17D"></circle><circle class="dot" id="class_0" r="4" cx="240.18163054695566" cy="345.30734098806937" fill="#8CD17D"></circle><circle class="dot" id="class_0" r="4" cx="308.0288957688338" cy="355.5365663011487" fill="#8CD17D"></circle><circle class="dot" id="class_2" r="4" cx="285.72136222910217" cy="322.0252436746929" fill="#FABFD2"></circle><circle class="dot" id="class_2" r="4" cx="386.625386996904" cy="194.639431766408" fill="#FABFD2"></circle><circle class="dot" id="class_2" r="4" cx="173.7213622291022" cy="326.60942105801837" fill="#FABFD2"></circle><circle class="dot" id="class_2" r="4" cx="344.0908152734778" cy="265.8085968210514" fill="#FABFD2"></circle><circle class="dot" id="class_2" r="4" cx="496.77605779153765" cy="251.34201326229942" fill="#FABFD2"></circle><circle class="dot" id="class_2" r="4" cx="298.0887512899897" cy="340.9739389494211" fill="#FABFD2"></circle><circle class="dot" id="class_2" r="4" cx="422.1093911248711" cy="293.20353226593437" fill="#FABFD2"></circle><circle class="dot" id="class_2" r="4" cx="267.2280701754386" cy="88.18402213010484" fill="#FABFD2"></circle><circle class="dot" id="class_2" r="4" cx="269.8864809081528" cy="343.81044591072487" fill="#FABFD2"></circle><circle class="dot" id="class_2" r="4" cx="245.61403508771932" cy="258.2540023208599" fill="#FABFD2"></circle><circle class="dot" id="class_2" r="4" cx="273.00722394220844" cy="159.3800304552611" fill="#FABFD2"></circle><circle class="dot" id="class_2" r="4" cx="294.50567595459233" cy="340.44054377185375" fill="#FABFD2"></circle><circle class="dot" id="class_2" r="4" cx="373.44891640866877" cy="223.29232656137083" fill="#FABFD2"></circle><circle class="dot" id="class_2" r="4" cx="298.31991744066056" cy="332.971786497903" fill="#FABFD2"></circle><circle class="dot" id="class_2" r="4" cx="115.6986584107327" cy="352.2618914299145" fill="#FABFD2"></circle><circle class="dot" id="class_3" r="4" cx="443.8390092879257" cy="268.86199332547244" fill="#D7B5A6"></circle><circle class="dot" id="class_3" r="4" cx="473.312693498452" cy="319.77704321999033" fill="#D7B5A6"></circle><circle class="dot" id="class_3" r="4" cx="465.91537667698657" cy="263.7568727759962" fill="#D7B5A6"></circle><circle class="dot" id="class_3" r="4" cx="441.64293085655316" cy="338.94946643754815" fill="#D7B5A6"></circle><circle class="dot" id="class_3" r="4" cx="202.9638802889577" cy="333.60061307444187" fill="#D7B5A6"></circle><circle class="dot" id="class_3" r="4" cx="350.91021671826627" cy="320.18295837903844" fill="#D7B5A6"></circle><circle class="dot" id="class_3" r="4" cx="513.6511867905058" cy="184.40102054326724" fill="#D7B5A6"></circle><circle class="dot" id="class_3" r="4" cx="390.78637770897836" cy="308.8490763482379" fill="#D7B5A6"></circle><circle class="dot" id="class_3" r="4" cx="377.4943240454076" cy="332.39266590136316" fill="#D7B5A6"></circle><circle class="dot" id="class_3" r="4" cx="446.3818369453044" cy="315.26982334984626" fill="#D7B5A6"></circle><circle class="dot" id="class_3" r="4" cx="481.6346749226006" cy="313.3419049592857" fill="#D7B5A6"></circle><circle class="dot" id="class_3" r="4" cx="341.77915376676987" cy="311.97136717811964" fill="#D7B5A6"></circle><circle class="dot" id="class_3" r="4" cx="327.90918472652214" cy="318.98695288903957" fill="#D7B5A6"></circle><circle class="dot" id="class_3" r="4" cx="417.60165118679055" cy="341.6611470876838" fill="#D7B5A6"></circle><circle class="dot" id="class_3" r="4" cx="275.55005159958716" cy="325.1210994967312" fill="#D7B5A6"></circle><circle class="dot" id="class_3" r="4" cx="363.62435500516" cy="337.476046463694" fill="#D7B5A6"></circle><circle class="dot" id="class_3" r="4" cx="219.49226006191955" cy="347.2648584221612" fill="#D7B5A6"></circle><circle class="dot" id="class_3" r="4" cx="279.9422084623323" cy="337.1828118013995" fill="#D7B5A6"></circle><circle class="dot" id="class_3" r="4" cx="463.6037151702786" cy="287.1890066203761" fill="#D7B5A6"></circle><circle class="dot" id="class_3" r="4" cx="383.04231166150674" cy="297.0461005103" fill="#D7B5A6"></circle><circle class="dot" id="class_3" r="4" cx="475.50877192982455" cy="259.62086573800144" fill="#D7B5A6"></circle><circle class="dot" id="class_3" r="4" cx="293.9277605779154" cy="315.87956364659084" fill="#D7B5A6"></circle><circle class="dot" id="class_3" r="4" cx="429.2755417956656" cy="312.0964996862898" fill="#D7B5A6"></circle><circle class="dot" id="class_3" r="4" cx="430.20020639834894" cy="338.1201828903353" fill="#D7B5A6"></circle><circle class="dot" id="class_3" r="4" cx="291.8472652218783" cy="303.4463323127712" fill="#D7B5A6"></circle><circle class="dot" id="class_3" r="4" cx="502.09287925696606" cy="277.5875872271622" fill="#D7B5A6"></circle><circle class="dot" id="class_3" r="4" cx="405.6965944272446" cy="312.27542080115313" fill="#D7B5A6"></circle><circle class="dot" id="class_3" r="4" cx="432.28070175438603" cy="298.3320258532336" fill="#D7B5A6"></circle><circle class="dot" id="class_3" r="4" cx="493.655314757482" cy="124.60778857437231" fill="#D7B5A6"></circle><circle class="dot" id="class_3" r="4" cx="467.8802889576883" cy="301.86155869583894" fill="#D7B5A6"></circle><circle class="dot" id="class_4" r="4" cx="448.11558307533545" cy="331.5944103170245" fill="#A0CBE8"></circle><circle class="dot" id="class_4" r="4" cx="484.29308565531477" cy="208.9854757720205" fill="#A0CBE8"></circle><circle class="dot" id="class_4" r="4" cx="494.233230134159" cy="205.9139115788113" fill="#A0CBE8"></circle><circle class="dot" id="class_4" r="4" cx="438.6377708978328" cy="337.1305541797167" fill="#A0CBE8"></circle><circle class="dot" id="class_4" r="4" cx="497.70072239422086" cy="299.9902867506573" fill="#A0CBE8"></circle><circle class="dot" id="class_4" r="4" cx="472.50361197110425" cy="280.36040521204" fill="#A0CBE8"></circle><circle class="dot" id="class_4" r="4" cx="491.921568627451" cy="298.34223241996847" fill="#A0CBE8"></circle><circle class="dot" id="class_4" r="4" cx="522.0887512899897" cy="190.6274345142426" fill="#A0CBE8"></circle><circle class="dot" id="class_4" r="4" cx="487.18266253869973" cy="228.54656505084432" fill="#A0CBE8"></circle><circle class="dot" id="class_4" r="4" cx="507.9876160990712" cy="202.6069839566947" fill="#A0CBE8"></circle><circle class="dot" id="class_4" r="4" cx="453.4324045407637" cy="326.00519230731067" fill="#A0CBE8"></circle><circle class="dot" id="class_4" r="4" cx="492.61506707946336" cy="189.28251521558116" fill="#A0CBE8"></circle><circle class="dot" id="class_4" r="4" cx="502.43962848297224" cy="259.28231391940386" fill="#A0CBE8"></circle><circle class="dot" id="class_4" r="4" cx="474.2373581011352" cy="265.0889318005717" fill="#A0CBE8"></circle><circle class="dot" id="class_4" r="4" cx="527.0588235294118" cy="224.7641134845474" fill="#A0CBE8"></circle><circle class="dot" id="class_4" r="4" cx="493.3085655314758" cy="272.37652251497747" fill="#A0CBE8"></circle><circle class="dot" id="class_4" r="4" cx="502.20846233230134" cy="242.57059187596982" fill="#A0CBE8"></circle><circle class="dot" id="class_4" r="4" cx="485.56449948400416" cy="307.05098548654564" fill="#A0CBE8"></circle><circle class="dot" id="class_4" r="4" cx="478.1671826625387" cy="135.29508460251526" fill="#A0CBE8"></circle><circle class="dot" id="class_4" r="4" cx="440.83384932920535" cy="312.46148651273086" fill="#A0CBE8"></circle><circle class="dot" id="class_4" r="4" cx="482.7905056759547" cy="324.45899951263647" fill="#A0CBE8"></circle><circle class="dot" id="class_4" r="4" cx="471.4633642930857" cy="292.83915783349744" fill="#A0CBE8"></circle><circle class="dot" id="class_4" r="4" cx="524.6315789473683" cy="199.21064680998012" fill="#A0CBE8"></circle><circle class="dot" id="class_4" r="4" cx="530.1795665634675" cy="196.6331825124088" fill="#A0CBE8"></circle><circle class="dot" id="class_4" r="4" cx="481.51909184726526" cy="290.662301280272" fill="#A0CBE8"></circle><circle class="dot" id="class_4" r="4" cx="450.311661506708" cy="283.58894640163237" fill="#A0CBE8"></circle><circle class="dot" id="class_4" r="4" cx="459.90505675954597" cy="294.1999993762654" fill="#A0CBE8"></circle><circle class="dot" id="class_4" r="4" cx="458.40247678018585" cy="268.13110108158423" fill="#A0CBE8"></circle><circle class="dot" id="class_4" r="4" cx="480.016511867905" cy="269.7926280803631" fill="#A0CBE8"></circle><circle class="dot" id="class_4" r="4" cx="476.3178534571724" cy="251.36804000747347" fill="#A0CBE8"></circle><circle class="dot" id="class_4" r="4" cx="508.91228070175436" cy="266.23553750757344" fill="#A0CBE8"></circle><circle class="dot" id="class_4" r="4" cx="537.3457172342622" cy="176.0771571082642" fill="#A0CBE8"></circle><circle class="dot" id="class_4" r="4" cx="519.3147574819402" cy="98.91734977422232" fill="#A0CBE8"></circle><circle class="dot" id="class_4" r="4" cx="317.2755417956656" cy="326.91582219140093" fill="#A0CBE8"></circle><circle class="dot" id="class_4" r="4" cx="506.13828689370484" cy="208.21579857453958" fill="#A0CBE8"></circle><circle class="dot" id="class_1" r="4" cx="78.82765737874098" cy="354.38261186609776" fill="#E15759"></circle><circle class="dot" id="class_1" r="4" cx="182.8524251805986" cy="354.8757931707295" fill="#E15759"></circle><circle class="dot" id="class_1" r="4" cx="142.97626418988645" cy="354.35617685825434" fill="#E15759"></circle><circle class="dot" id="class_1" r="4" cx="238.2167182662539" cy="354.81455377031995" fill="#E15759"></circle><circle class="dot" id="class_1" r="4" cx="250.35294117647058" cy="355.74610711621676" fill="#E15759"></circle><circle class="dot" id="class_1" r="4" cx="166.67079463364297" cy="355.84817278356604" fill="#E15759"></circle><circle class="dot" id="class_1" r="4" cx="300.8627450980393" cy="351.7219640496368" fill="#E15759"></circle><circle class="dot" id="class_1" r="4" cx="397.1434468524252" cy="350.18169106366884" fill="#E15759"></circle><circle class="dot" id="class_5" r="4" cx="492.3839009287927" cy="196.79505866082476" fill="#4E79A7"></circle><circle class="dot" id="class_5" r="4" cx="178.2291021671827" cy="358.0641204873862" fill="#4E79A7"></circle><circle class="dot" id="class_5" r="4" cx="398.06811145510835" cy="355.8928775458651" fill="#4E79A7"></circle><circle class="dot" id="class_5" r="4" cx="363.1620227038184" cy="336.9738833803355" fill="#4E79A7"></circle><circle class="dot" id="class_5" r="4" cx="368.71001031991744" cy="214.28207151344392" fill="#4E79A7"></circle><circle class="dot" id="class_5" r="4" cx="495.27347781217753" cy="288.2020083688177" fill="#4E79A7"></circle><circle class="dot" id="class_5" r="4" cx="224.00000000000006" cy="352.8168224632925" fill="#4E79A7"></circle><circle class="dot" id="class_5" r="4" cx="506.9473684210526" cy="226.3765468973313" fill="#4E79A7"></circle><circle class="dot" id="class_5" r="4" cx="390.32404540763673" cy="339.80069410324114" fill="#4E79A7"></circle><circle class="dot" id="class_5" r="4" cx="357.7296181630547" cy="341.0356886781674" fill="#4E79A7"></circle><circle class="dot" id="class_5" r="4" cx="434.2456140350878" cy="276.60683822960294" fill="#4E79A7"></circle><circle class="dot" id="class_5" r="4" cx="382.4643962848297" cy="336.479885550365" fill="#4E79A7"></circle><circle class="dot" id="class_5" r="4" cx="386.2786377708979" cy="327.8978980426357" fill="#4E79A7"></circle><circle class="dot" id="class_5" r="4" cx="281.90712074303406" cy="349.2138023401956" fill="#4E79A7"></circle><circle class="dot" id="class_5" r="4" cx="268.7306501547988" cy="355.4939028521967" fill="#4E79A7"></circle><circle class="dot" id="class_5" r="4" cx="373.3333333333333" cy="41.8289600557506" fill="#4E79A7"></circle><circle class="dot" id="class_5" r="4" cx="498.3942208462333" cy="208.24896991642808" fill="#4E79A7"></circle><circle class="dot" id="class_5" r="4" cx="174.29927760577914" cy="344.8110977134172" fill="#4E79A7"></circle><circle class="dot" id="class_5" r="4" cx="335.5376676986584" cy="343.56079328838854" fill="#4E79A7"></circle><circle class="dot" id="class_5" r="4" cx="469.1517027863777" cy="291.5056698895791" fill="#4E79A7"></circle><circle class="dot" id="class_5" r="4" cx="300.8627450980393" cy="349.96031063118824" fill="#4E79A7"></circle><circle class="dot" id="class_5" r="4" cx="467.8802889576883" cy="324.54187683452403" fill="#4E79A7"></circle><circle class="dot" id="class_5" r="4" cx="360.38802889576885" cy="347.81019528280837" fill="#4E79A7"></circle><circle class="dot" id="class_5" r="4" cx="238.2167182662539" cy="356.344926386555" fill="#4E79A7"></circle></g><g transform="translate(0,360)" fill="none" font-size="10" font-family="sans-serif" text-anchor="middle"><path class="domain" stroke="#000" d="M0.5,6V0.5H560.5V6"></path><g class="tick" opacity="1" transform="translate(21.18937048503611,0)"><line stroke="#000" y2="6"></line><text fill="#000" y="9" dy="0.71em">30</text></g><g class="tick" opacity="1" transform="translate(78.98090815273478,0)"><line stroke="#000" y2="6"></line><text fill="#000" y="9" dy="0.71em">35</text></g><g class="tick" opacity="1" transform="translate(136.77244582043343,0)"><line stroke="#000" y2="6"></line><text fill="#000" y="9" dy="0.71em">40</text></g><g class="tick" opacity="1" transform="translate(194.5639834881321,0)"><line stroke="#000" y2="6"></line><text fill="#000" y="9" dy="0.71em">45</text></g><g class="tick" opacity="1" transform="translate(252.35552115583076,0)"><line stroke="#000" y2="6"></line><text fill="#000" y="9" dy="0.71em">50</text></g><g class="tick" opacity="1" transform="translate(310.14705882352945,0)"><line stroke="#000" y2="6"></line><text fill="#000" y="9" dy="0.71em">55</text></g><g class="tick" opacity="1" transform="translate(367.9385964912281,0)"><line stroke="#000" y2="6"></line><text fill="#000" y="9" dy="0.71em">60</text></g><g class="tick" opacity="1" transform="translate(425.7301341589268,0)"><line stroke="#000" y2="6"></line><text fill="#000" y="9" dy="0.71em">65</text></g><g class="tick" opacity="1" transform="translate(483.52167182662544,0)"><line stroke="#000" y2="6"></line><text fill="#000" y="9" dy="0.71em">70</text></g><g class="tick" opacity="1" transform="translate(541.313209494324,0)"><line stroke="#000" y2="6"></line><text fill="#000" y="9" dy="0.71em">75</text></g></g><g fill="none" font-size="10" font-family="sans-serif" text-anchor="end"><path class="domain" stroke="#000" d="M-6,360.5H0.5V0.5H-6"></path><g class="tick" opacity="1" transform="translate(0,312.3551143830088)"><line stroke="#000" x2="-6"></line><text fill="#000" x="-9" dy="0.32em">5,000</text></g><g class="tick" opacity="1" transform="translate(0,261.32228070836976)"><line stroke="#000" x2="-6"></line><text fill="#000" x="-9" dy="0.32em">10,000</text></g><g class="tick" opacity="1" transform="translate(0,210.28944703373074)"><line stroke="#000" x2="-6"></line><text fill="#000" x="-9" dy="0.32em">15,000</text></g><g class="tick" opacity="1" transform="translate(0,159.25661335909172)"><line stroke="#000" x2="-6"></line><text fill="#000" x="-9" dy="0.32em">20,000</text></g><g class="tick" opacity="1" transform="translate(0,108.2237796844527)"><line stroke="#000" x2="-6"></line><text fill="#000" x="-9" dy="0.32em">25,000</text></g><g class="tick" opacity="1" transform="translate(0,57.19094600981367)"><line stroke="#000" x2="-6"></line><text fill="#000" x="-9" dy="0.32em">30,000</text></g><g class="tick" opacity="1" transform="translate(0,6.158112335174565)"><line stroke="#000" x2="-6"></line><text fill="#000" x="-9" dy="0.32em">35,000</text></g></g></g><text x="0" y="20">year-1970</text></svg>