<?xml version="1.0" standalone="no"?>
<svg width="600" height="400" style="background-color: rgb(255, 255, 255);" xmlns="http://www.w3.org/2000/svg"><g transform="translate(20,20)"><g><circle class="dot" id="class_0" r="4" cx="23.00021963540524" cy="321.65440148936244" fill="rgb(236, 165, 174)"></circle><circle class="dot" id="class_0" r="4" cx="117.95299802328135" cy="353.3261804331734" fill="rgb(236, 165, 174)"></circle><circle class="dot" id="class_0" r="4" cx="239.5958708543817" cy="353.7857942233412" fill="rgb(236, 165, 174)"></circle><circle class="dot" id="class_0" r="4" cx="75.27344607950802" cy="356.8526927453221" fill="rgb(236, 165, 174)"></circle><circle class="dot" id="class_0" r="4" cx="124.96376015813749" cy="359.64089712570353" fill="rgb(236, 165, 174)"></circle><circle class="dot" id="class_0" r="4" cx="127.91566000439273" cy="349.228071488462" fill="rgb(236, 165, 174)"></circle><circle class="dot" id="class_0" r="4" cx="256.44629914342187" cy="356.92931258485544" fill="rgb(236, 165, 174)"></circle><circle class="dot" id="class_0" r="4" cx="118.81396881177247" cy="349.623168847814" fill="rgb(236, 165, 174)"></circle><circle class="dot" id="class_0" r="4" cx="151.53085877443448" cy="349.7456763934415" fill="rgb(236, 165, 174)"></circle><circle class="dot" id="class_0" r="4" cx="124.84076433121021" cy="354.6255602942707" fill="rgb(236, 165, 174)"></circle><circle class="dot" id="class_0" r="4" cx="210.44585987261152" cy="338.38068085474623" fill="rgb(236, 165, 174)"></circle><circle class="dot" id="class_0" r="4" cx="117.83000219635407" cy="346.7404526324037" fill="rgb(236, 165, 174)"></circle><circle class="dot" id="class_0" r="4" cx="68.87766307928835" cy="358.6559953971965" fill="rgb(236, 165, 174)"></circle><circle class="dot" id="class_0" r="4" cx="98.15066988798594" cy="360" fill="rgb(236, 165, 174)"></circle><circle class="dot" id="class_0" r="4" cx="89.54096200307487" cy="359.6144801205897" fill="rgb(236, 165, 174)"></circle><circle class="dot" id="class_0" r="4" cx="103.93147375356907" cy="306.5634505122607" fill="rgb(236, 165, 174)"></circle><circle class="dot" id="class_0" r="4" cx="180.803865583132" cy="351.6220204857501" fill="rgb(236, 165, 174)"></circle><circle class="dot" id="class_0" r="4" cx="65.06479244454209" cy="357.2787327321779" fill="rgb(236, 165, 174)"></circle><circle class="dot" id="class_0" r="4" cx="41.572589501427615" cy="358.02714437904837" fill="rgb(236, 165, 174)"></circle><circle class="dot" id="class_0" r="4" cx="186.83066110256976" cy="354.05049050964124" fill="rgb(236, 165, 174)"></circle><circle class="dot" id="class_0" r="4" cx="190.02855260267953" cy="359.9798978168257" fill="rgb(236, 165, 174)"></circle><circle class="dot" id="class_0" r="4" cx="111.8032066769163" cy="357.0283500422742" fill="rgb(236, 165, 174)"></circle><circle class="dot" id="class_0" r="4" cx="107.2523610806062" cy="346.5842660364318" fill="rgb(236, 165, 174)"></circle><circle class="dot" id="class_0" r="4" cx="82.03821656050954" cy="359.30663255103605" fill="rgb(236, 165, 174)"></circle><circle class="dot" id="class_0" r="4" cx="62.48188007906877" cy="358.4447646033181" fill="rgb(236, 165, 174)"></circle><circle class="dot" id="class_0" r="4" cx="164.1994289479464" cy="353.8582041815815" fill="rgb(236, 165, 174)"></circle><circle class="dot" id="class_0" r="4" cx="350.538106742807" cy="341.0714264831938" fill="rgb(236, 165, 174)"></circle><circle class="dot" id="class_0" r="4" cx="47.845376674720015" cy="358.2628977314587" fill="rgb(236, 165, 174)"></circle><circle class="dot" id="class_0" r="4" cx="193.8414232374259" cy="333.3654492703457" fill="rgb(236, 165, 174)"></circle><circle class="dot" id="class_0" r="4" cx="78.84032506039973" cy="354.31571303110286" fill="rgb(236, 165, 174)"></circle><circle class="dot" id="class_0" r="4" cx="83.14517900285527" cy="352.18951248405216" fill="rgb(236, 165, 174)"></circle><circle class="dot" id="class_0" r="4" cx="309.9494838567977" cy="332.56778201234664" fill="rgb(236, 165, 174)"></circle><circle class="dot" id="class_0" r="4" cx="137.14034702394028" cy="357.8803247689535" fill="rgb(236, 165, 174)"></circle><circle class="dot" id="class_0" r="4" cx="237.25895014276304" cy="353.98355339708183" fill="rgb(236, 165, 174)"></circle><circle class="dot" id="class_0" r="4" cx="112.7871732923347" cy="346.89790219276347" fill="rgb(236, 165, 174)"></circle><circle class="dot" id="class_0" r="4" cx="27.182077750933505" cy="352.4445260433782" fill="rgb(236, 165, 174)"></circle><circle class="dot" id="class_0" r="4" cx="59.6529760597408" cy="350.0898341891476" fill="rgb(236, 165, 174)"></circle><circle class="dot" id="class_0" r="4" cx="220.4085218537228" cy="305.45193660386536" fill="rgb(236, 165, 174)"></circle><circle class="dot" id="class_0" r="4" cx="145.9960465627059" cy="343.4527458366028" fill="rgb(236, 165, 174)"></circle><circle class="dot" id="class_0" r="4" cx="161.49352075554577" cy="348.7807716010763" fill="rgb(236, 165, 174)"></circle><circle class="dot" id="class_0" r="4" cx="154.1137711399077" cy="356.35792644635734" fill="rgb(236, 165, 174)"></circle><circle class="dot" id="class_0" r="4" cx="167.64331210191082" cy="353.17483520068856" fill="rgb(236, 165, 174)"></circle><circle class="dot" id="class_0" r="4" cx="157.92664177465406" cy="355.51784463433086" fill="rgb(236, 165, 174)"></circle><circle class="dot" id="class_0" r="4" cx="171.82517021743908" cy="347.6042150267035" fill="rgb(236, 165, 174)"></circle><circle class="dot" id="class_0" r="4" cx="250.5424994509115" cy="358.2743696579822" fill="rgb(236, 165, 174)"></circle><circle class="dot" id="class_5" r="4" cx="489.03140786294756" cy="238.59607475345882" fill="rgb(186, 255, 146)"></circle><circle class="dot" id="class_5" r="4" cx="138.61629694706787" cy="358.6643099127502" fill="rgb(186, 255, 146)"></circle><circle class="dot" id="class_5" r="4" cx="6.149791346365034" cy="357.6824603481806" fill="rgb(186, 255, 146)"></circle><circle class="dot" id="class_5" r="4" cx="299.9868218756864" cy="342.38554092881674" fill="rgb(186, 255, 146)"></circle><circle class="dot" id="class_5" r="4" cx="432.8223149571711" cy="321.444433659872" fill="rgb(186, 255, 146)"></circle><circle class="dot" id="class_5" r="4" cx="123.24181858115527" cy="355.0305508746613" fill="rgb(186, 255, 146)"></circle><circle class="dot" id="class_5" r="4" cx="451.0256973424116" cy="306.0504764767036" fill="rgb(186, 255, 146)"></circle><circle class="dot" id="class_5" r="4" cx="298.87985943334064" cy="351.18892894772847" fill="rgb(186, 255, 146)"></circle><circle class="dot" id="class_5" r="4" cx="281.90643531737317" cy="351.85198525138253" fill="rgb(186, 255, 146)"></circle><circle class="dot" id="class_5" r="4" cx="280.30748956731827" cy="343.77448601442353" fill="rgb(186, 255, 146)"></circle><circle class="dot" id="class_5" r="4" cx="192.11948166044365" cy="353.32891685601385" fill="rgb(186, 255, 146)"></circle><circle class="dot" id="class_5" r="4" cx="154.48275862068962" cy="357.1213884188505" fill="rgb(186, 255, 146)"></circle><circle class="dot" id="class_5" r="4" cx="493.58225345925774" cy="228.93050304573217" fill="rgb(186, 255, 146)"></circle><circle class="dot" id="class_5" r="4" cx="89.90994948385678" cy="352.0304842182075" fill="rgb(186, 255, 146)"></circle><circle class="dot" id="class_5" r="4" cx="271.82077750933445" cy="347.14197006072754" fill="rgb(186, 255, 146)"></circle><circle class="dot" id="class_5" r="4" cx="410.9290577641117" cy="327.7606238108547" fill="rgb(186, 255, 146)"></circle><circle class="dot" id="class_5" r="4" cx="409.2071161871295" cy="342.9375616133668" fill="rgb(186, 255, 146)"></circle><circle class="dot" id="class_5" r="4" cx="287.1952558752471" cy="353.9240888238176" fill="rgb(186, 255, 146)"></circle><circle class="dot" id="class_5" r="4" cx="159.89457500549094" cy="356.48338090888996" fill="rgb(186, 255, 146)"></circle><circle class="dot" id="class_1" r="4" cx="0" cy="354.67786806933674" fill="rgb(14, 252, 247)"></circle><circle class="dot" id="class_1" r="4" cx="111.68021084998904" cy="356.6722993319152" fill="rgb(14, 252, 247)"></circle><circle class="dot" id="class_1" r="4" cx="139.10828025477704" cy="356.49337937696095" fill="rgb(14, 252, 247)"></circle><circle class="dot" id="class_1" r="4" cx="90.2789369646387" cy="357.0743429954007" fill="rgb(14, 252, 247)"></circle><circle class="dot" id="class_1" r="4" cx="224.4673841423238" cy="355.988193621796" fill="rgb(14, 252, 247)"></circle><circle class="dot" id="class_1" r="4" cx="324.4629914342192" cy="352.53388077382294" fill="rgb(14, 252, 247)"></circle><circle class="dot" id="class_4" r="4" cx="382.7630133977597" cy="340.4501532513732" fill="rgb(255, 192, 124)"></circle><circle class="dot" id="class_4" r="4" cx="463.0792883812871" cy="257.68925462882294" fill="rgb(255, 192, 124)"></circle><circle class="dot" id="class_4" r="4" cx="473.77992532396235" cy="257.7653482331947" fill="rgb(255, 192, 124)"></circle><circle class="dot" id="class_4" r="4" cx="359.147814627718" cy="346.5784774496539" fill="rgb(255, 192, 124)"></circle><circle class="dot" id="class_4" r="4" cx="467.9991214583792" cy="324.25442417594496" fill="rgb(255, 192, 124)"></circle><circle class="dot" id="class_4" r="4" cx="430.36239841862516" cy="308.5807203808539" fill="rgb(255, 192, 124)"></circle><circle class="dot" id="class_4" r="4" cx="505.2668570173512" cy="242.05322927130464" fill="rgb(255, 192, 124)"></circle><circle class="dot" id="class_4" r="4" cx="465.90819240061506" cy="273.6969072574845" fill="rgb(255, 192, 124)"></circle><circle class="dot" id="class_4" r="4" cx="483.0046123435099" cy="255.99909253669904" fill="rgb(255, 192, 124)"></circle><circle class="dot" id="class_4" r="4" cx="475.50186690094455" cy="236.5608076423378" fill="rgb(255, 192, 124)"></circle><circle class="dot" id="class_4" r="4" cx="462.4643092466506" cy="310.48716512440785" fill="rgb(255, 192, 124)"></circle><circle class="dot" id="class_4" r="4" cx="454.59257632330343" cy="290.62673438338686" fill="rgb(255, 192, 124)"></circle><circle class="dot" id="class_4" r="4" cx="528.3900724796838" cy="259.7285211271723" fill="rgb(255, 192, 124)"></circle><circle class="dot" id="class_4" r="4" cx="480.9136832857458" cy="299.35108188102174" fill="rgb(255, 192, 124)"></circle><circle class="dot" id="class_4" r="4" cx="468.368108939161" cy="286.8321578799038" fill="rgb(255, 192, 124)"></circle><circle class="dot" id="class_4" r="4" cx="466.64616736217874" cy="183.98591560825182" fill="rgb(255, 192, 124)"></circle><circle class="dot" id="class_4" r="4" cx="363.9446518778827" cy="330.06679678318295" fill="rgb(255, 192, 124)"></circle><circle class="dot" id="class_4" r="4" cx="461.3573468043049" cy="339.6055458169567" fill="rgb(255, 192, 124)"></circle><circle class="dot" id="class_4" r="4" cx="385.9609048978695" cy="316.9331248662486" fill="rgb(255, 192, 124)"></circle><circle class="dot" id="class_4" r="4" cx="519.5343729409182" cy="252.03591028742966" fill="rgb(255, 192, 124)"></circle><circle class="dot" id="class_4" r="4" cx="522.1172853063914" cy="242.98445501332543" fill="rgb(255, 192, 124)"></circle><circle class="dot" id="class_4" r="4" cx="451.7636723039754" cy="309.7469627460588" fill="rgb(255, 192, 124)"></circle><circle class="dot" id="class_4" r="4" cx="407.3621787832199" cy="319.65533935736164" fill="rgb(255, 192, 124)"></circle><circle class="dot" id="class_4" r="4" cx="424.950582033824" cy="318.0446387746439" fill="rgb(255, 192, 124)"></circle><circle class="dot" id="class_4" r="4" cx="394.5706127827806" cy="300.3953429357607" fill="rgb(255, 192, 124)"></circle><circle class="dot" id="class_4" r="4" cx="482.38963320887325" cy="287.9821922021304" fill="rgb(255, 192, 124)"></circle><circle class="dot" id="class_4" r="4" cx="461.84933011201423" cy="289.17537780761074" fill="rgb(255, 192, 124)"></circle><circle class="dot" id="class_4" r="4" cx="469.1060839007248" cy="315.37262711795034" fill="rgb(255, 192, 124)"></circle><circle class="dot" id="class_4" r="4" cx="515.4755106523173" cy="238.0273197907689" fill="rgb(255, 192, 124)"></circle><circle class="dot" id="class_4" r="4" cx="495.79617834394907" cy="163.22814866961906" fill="rgb(255, 192, 124)"></circle><circle class="dot" id="class_4" r="4" cx="235.2910169119262" cy="335.7579248091813" fill="rgb(255, 192, 124)"></circle><circle class="dot" id="class_4" r="4" cx="491.6143202284208" cy="235.76103544369224" fill="rgb(255, 192, 124)"></circle><circle class="dot" id="class_2" r="4" cx="194.702394025917" cy="324.70046109894275" fill="rgb(142, 178, 251)"></circle><circle class="dot" id="class_2" r="4" cx="298.01888864484954" cy="233.58684224990088" fill="rgb(142, 178, 251)"></circle><circle class="dot" id="class_2" r="4" cx="90.89391609927526" cy="331.78979594939256" fill="rgb(142, 178, 251)"></circle><circle class="dot" id="class_2" r="4" cx="233.69207116187133" cy="289.24042047358824" fill="rgb(142, 178, 251)"></circle><circle class="dot" id="class_2" r="4" cx="462.09532176586873" cy="297.6050336147327" fill="rgb(142, 178, 251)"></circle><circle class="dot" id="class_2" r="4" cx="192.98045244893476" cy="341.83909833697993" fill="rgb(142, 178, 251)"></circle><circle class="dot" id="class_2" r="4" cx="366.527564243356" cy="306.8079393683541" fill="rgb(142, 178, 251)"></circle><circle class="dot" id="class_2" r="4" cx="189.782560948825" cy="312.2190050413328" fill="rgb(142, 178, 251)"></circle><circle class="dot" id="class_2" r="4" cx="191.25851087195255" cy="347.64610334556926" fill="rgb(142, 178, 251)"></circle><circle class="dot" id="class_2" r="4" cx="127.79266417746545" cy="337.2686407111893" fill="rgb(142, 178, 251)"></circle><circle class="dot" id="class_2" r="4" cx="162.10849989018232" cy="261.44520547144236" fill="rgb(142, 178, 251)"></circle><circle class="dot" id="class_2" r="4" cx="211.67581814188452" cy="346.8072844979307" fill="rgb(142, 178, 251)"></circle><circle class="dot" id="class_2" r="4" cx="192.98045244893476" cy="342.3511251492461" fill="rgb(142, 178, 251)"></circle><circle class="dot" id="class_2" r="4" cx="41.94157698220953" cy="355.23125696530707" fill="rgb(142, 178, 251)"></circle><circle class="dot" id="class_3" r="4" cx="419.41576982209546" cy="290.30604667588943" fill="rgb(152, 49, 228)"></circle><circle class="dot" id="class_3" r="4" cx="410.43707445640246" cy="307.82988805223994" fill="rgb(152, 49, 228)"></circle><circle class="dot" id="class_3" r="4" cx="372.67735558972106" cy="344.1535858248619" fill="rgb(152, 49, 228)"></circle><circle class="dot" id="class_3" r="4" cx="141.93718427410502" cy="341.52956681490906" fill="rgb(152, 49, 228)"></circle><circle class="dot" id="class_3" r="4" cx="287.564243356029" cy="331.78000797538624" fill="rgb(152, 49, 228)"></circle><circle class="dot" id="class_3" r="4" cx="490.8763452668572" cy="230.13926521199676" fill="rgb(152, 49, 228)"></circle><circle class="dot" id="class_3" r="4" cx="318.5591917417088" cy="318.3332261372819" fill="rgb(152, 49, 228)"></circle><circle class="dot" id="class_3" r="4" cx="314.74632110696245" cy="338.5694940307391" fill="rgb(152, 49, 228)"></circle><circle class="dot" id="class_3" r="4" cx="374.89128047441244" cy="328.2989623812024" fill="rgb(152, 49, 228)"></circle><circle class="dot" id="class_3" r="4" cx="402.9343290138371" cy="309.14537070928316" fill="rgb(152, 49, 228)"></circle><circle class="dot" id="class_3" r="4" cx="270.46782341313417" cy="321.58925357635263" fill="rgb(152, 49, 228)"></circle><circle class="dot" id="class_3" r="4" cx="248.08258291236547" cy="327.30890354811135" fill="rgb(152, 49, 228)"></circle><circle class="dot" id="class_3" r="4" cx="177.113990775313" cy="335.4373423487162" fill="rgb(152, 49, 228)"></circle><circle class="dot" id="class_3" r="4" cx="307.36657149132435" cy="340.69264241385235" fill="rgb(152, 49, 228)"></circle><circle class="dot" id="class_3" r="4" cx="135.91038875466725" cy="345.0750235928764" fill="rgb(152, 49, 228)"></circle><circle class="dot" id="class_3" r="4" cx="186.5846694487151" cy="340.0093786799917" fill="rgb(152, 49, 228)"></circle><circle class="dot" id="class_3" r="4" cx="407.73116626400184" cy="309.9997661177059" fill="rgb(152, 49, 228)"></circle><circle class="dot" id="class_3" r="4" cx="319.05117504941796" cy="317.1616161734284" fill="rgb(152, 49, 228)"></circle><circle class="dot" id="class_3" r="4" cx="195.1943773336262" cy="329.63117931638544" fill="rgb(152, 49, 228)"></circle><circle class="dot" id="class_3" r="4" cx="365.05161432022845" cy="330.9820249762902" fill="rgb(152, 49, 228)"></circle><circle class="dot" id="class_3" r="4" cx="401.704370744564" cy="342.5964559815981" fill="rgb(152, 49, 228)"></circle><circle class="dot" id="class_3" r="4" cx="203.80408521853727" cy="316.6006494911306" fill="rgb(152, 49, 228)"></circle><circle class="dot" id="class_3" r="4" cx="469.4750713815067" cy="316.427097134825" fill="rgb(152, 49, 228)"></circle><circle class="dot" id="class_3" r="4" cx="398.3834834175269" cy="313.3435695817366" fill="rgb(152, 49, 228)"></circle><circle class="dot" id="class_3" r="4" cx="476.9778168240721" cy="172.52756595188336" fill="rgb(152, 49, 228)"></circle><circle class="dot" id="class_3" r="4" cx="452.1326597847574" cy="303.6079033504808" fill="rgb(152, 49, 228)"></circle></g><g transform="translate(0,360)" fill="none" font-size="10" font-family="sans-serif" text-anchor="middle"><path class="domain" stroke="#000" d="M0.5,6V0.5H560.5V6"></path><g class="tick" opacity="1" transform="translate(48.09938502086538,0)"><line stroke="#000" y2="6"></line><text fill="#000" y="9" dy="0.71em">35</text></g><g class="tick" opacity="1" transform="translate(109.59729848451572,0)"><line stroke="#000" y2="6"></line><text fill="#000" y="9" dy="0.71em">40</text></g><g class="tick" opacity="1" transform="translate(171.09521194816605,0)"><line stroke="#000" y2="6"></line><text fill="#000" y="9" dy="0.71em">45</text></g><g class="tick" opacity="1" transform="translate(232.5931254118164,0)"><line stroke="#000" y2="6"></line><text fill="#000" y="9" dy="0.71em">50</text></g><g class="tick" opacity="1" transform="translate(294.0910388754668,0)"><line stroke="#000" y2="6"></line><text fill="#000" y="9" dy="0.71em">55</text></g><g class="tick" opacity="1" transform="translate(355.5889523391171,0)"><line stroke="#000" y2="6"></line><text fill="#000" y="9" dy="0.71em">60</text></g><g class="tick" opacity="1" transform="translate(417.0868658027675,0)"><line stroke="#000" y2="6"></line><text fill="#000" y="9" dy="0.71em">65</text></g><g class="tick" opacity="1" transform="translate(478.5847792664178,0)"><line stroke="#000" y2="6"></line><text fill="#000" y="9" dy="0.71em">70</text></g><g class="tick" opacity="1" transform="translate(540.0826927300682,0)"><line stroke="#000" y2="6"></line><text fill="#000" y="9" dy="0.71em">75</text></g></g><g fill="none" font-size="10" font-family="sans-serif" text-anchor="end"><path class="domain" stroke="#000" d="M-6,360.5H0.5V0.5H-6"></path><g class="tick" opacity="1" transform="translate(0,311.6950566638328)"><line stroke="#000" x2="-6"></line><text fill="#000" x="-9" dy="0.32em">5,000</text></g><g class="tick" opacity="1" transform="translate(0,259.07154050081215)"><line stroke="#000" x2="-6"></line><text fill="#000" x="-9" dy="0.32em">10,000</text></g><g class="tick" opacity="1" transform="translate(0,206.4480243377915)"><line stroke="#000" x2="-6"></line><text fill="#000" x="-9" dy="0.32em">15,000</text></g><g class="tick" opacity="1" transform="translate(0,153.82450817477087)"><line stroke="#000" x2="-6"></line><text fill="#000" x="-9" dy="0.32em">20,000</text></g><g class="tick" opacity="1" transform="translate(0,101.2009920117502)"><line stroke="#000" x2="-6"></line><text fill="#000" x="-9" dy="0.32em">25,000</text></g><g class="tick" opacity="1" transform="translate(0,48.57747584872959)"><line stroke="#000" x2="-6"></line><text fill="#000" x="-9" dy="0.32em">30,000</text></g></g></g><text x="0" y="20">year-1960</text></svg>