<?xml version="1.0" standalone="no"?>
<svg width="600" height="400" style="background-color: rgb(255, 255, 255);" xmlns="http://www.w3.org/2000/svg"><g transform="translate(20,20)"><g><circle class="dot" id="class_0" r="4" cx="142.62951496388027" cy="331.50530698942856" fill="#8CD17D"></circle><circle class="dot" id="class_0" r="4" cx="258.0970072239422" cy="351.1072225351921" fill="#8CD17D"></circle><circle class="dot" id="class_0" r="4" cx="372.75541795665634" cy="320.2400130870867" fill="#8CD17D"></circle><circle class="dot" id="class_0" r="4" cx="193.48606811145515" cy="354.7761770793966" fill="#8CD17D"></circle><circle class="dot" id="class_0" r="4" cx="214.40660474716202" cy="357.37793300579705" fill="#8CD17D"></circle><circle class="dot" id="class_0" r="4" cx="264.33849329205367" cy="342.58514757419675" fill="#8CD17D"></circle><circle class="dot" id="class_0" r="4" cx="384.42930856553147" cy="351.82311112597995" fill="#8CD17D"></circle><circle class="dot" id="class_0" r="4" cx="231.7440660474716" cy="354.6744176090494" fill="#8CD17D"></circle><circle class="dot" id="class_0" r="4" cx="274.5098039215686" cy="350.55555760316923" fill="#8CD17D"></circle><circle class="dot" id="class_0" r="4" cx="211.28586171310633" cy="355.75692607695584" fill="#8CD17D"></circle><circle class="dot" id="class_0" r="4" cx="362.81527347781224" cy="322.38369829842355" fill="#8CD17D"></circle><circle class="dot" id="class_0" r="4" cx="317.2755417956656" cy="335.2819408126865" fill="#8CD17D"></circle><circle class="dot" id="class_0" r="4" cx="168.75128998968012" cy="352.9828833040698" fill="#8CD17D"></circle><circle class="dot" id="class_0" r="4" cx="183.08359133126933" cy="357.43325259750037" fill="#8CD17D"></circle><circle class="dot" id="class_0" r="4" cx="181.3498452012384" cy="356.882608322151" fill="#8CD17D"></circle><circle class="dot" id="class_0" r="4" cx="303.0588235294118" cy="202.677205135831" fill="#8CD17D"></circle><circle class="dot" id="class_0" r="4" cx="286.87719298245617" cy="352.95859167524065" fill="#8CD17D"></circle><circle class="dot" id="class_0" r="4" cx="177.1888544891641" cy="353.9705727670088" fill="#8CD17D"></circle><circle class="dot" id="class_0" r="4" cx="138.23735810113521" cy="355.7392687165044" fill="#8CD17D"></circle><circle class="dot" id="class_0" r="4" cx="340.7389060887513" cy="349.1685872495599" fill="#8CD17D"></circle><circle class="dot" id="class_0" r="4" cx="295.66150670794633" cy="354.7174893206708" fill="#8CD17D"></circle><circle class="dot" id="class_0" r="4" cx="224.00000000000006" cy="356.6634733343521" fill="#8CD17D"></circle><circle class="dot" id="class_0" r="4" cx="230.2414860681115" cy="347.21505037649473" fill="#8CD17D"></circle><circle class="dot" id="class_0" r="4" cx="191.86790505675955" cy="355.7426368835269" fill="#8CD17D"></circle><circle class="dot" id="class_0" r="4" cx="136.61919504643964" cy="355.7345736958063" fill="#8CD17D"></circle><circle class="dot" id="class_0" r="4" cx="282.83178534571726" cy="347.3234441152197" fill="#8CD17D"></circle><circle class="dot" id="class_0" r="4" cx="434.70794633642925" cy="328.1984814329793" fill="#8CD17D"></circle><circle class="dot" id="class_0" r="4" cx="168.63570691434467" cy="357.93398676151594" fill="#8CD17D"></circle><circle class="dot" id="class_0" r="4" cx="342.9349845201239" cy="320.35616381653017" fill="#8CD17D"></circle><circle class="dot" id="class_0" r="4" cx="129.56862745098042" cy="353.1152624746218" fill="#8CD17D"></circle><circle class="dot" id="class_0" r="4" cx="191.28998968008256" cy="344.073775332486" fill="#8CD17D"></circle><circle class="dot" id="class_0" r="4" cx="465.79979360165123" cy="313.0038634690249" fill="#8CD17D"></circle><circle class="dot" id="class_0" r="4" cx="204.2352941176471" cy="354.5317298060951" fill="#8CD17D"></circle><circle class="dot" id="class_0" r="4" cx="361.7750257997936" cy="340.7978756732436" fill="#8CD17D"></circle><circle class="dot" id="class_0" r="4" cx="221.6883384932921" cy="348.45473997211906" fill="#8CD17D"></circle><circle class="dot" id="class_0" r="4" cx="156.61506707946336" cy="348.46923329688263" fill="#8CD17D"></circle><circle class="dot" id="class_0" r="4" cx="169.79153766769863" cy="352.07756083468166" fill="#8CD17D"></circle><circle class="dot" id="class_0" r="4" cx="330.3364293085655" cy="275.3419384141434" fill="#8CD17D"></circle><circle class="dot" id="class_0" r="4" cx="245.96078431372553" cy="344.9142861031073" fill="#8CD17D"></circle><circle class="dot" id="class_0" r="4" cx="301.9029927760578" cy="325.48322848448646" fill="#8CD17D"></circle><circle class="dot" id="class_0" r="4" cx="254.28276573787412" cy="353.4436077264844" fill="#8CD17D"></circle><circle class="dot" id="class_0" r="4" cx="307.5665634674923" cy="346.6645081668127" fill="#8CD17D"></circle><circle class="dot" id="class_0" r="4" cx="252.31785345717233" cy="356.368299424378" fill="#8CD17D"></circle><circle class="dot" id="class_0" r="4" cx="274.16305469556244" cy="347.97003011787734" fill="#8CD17D"></circle><circle class="dot" id="class_0" r="4" cx="355.41795665634675" cy="355.4621604296511" fill="#8CD17D"></circle><circle class="dot" id="class_2" r="4" cx="363.1620227038184" cy="305.62706736135584" fill="#FABFD2"></circle><circle class="dot" id="class_2" r="4" cx="452.392156862745" cy="167.97334725206622" fill="#FABFD2"></circle><circle class="dot" id="class_2" r="4" cx="223.88441692466458" cy="333.76003964684145" fill="#FABFD2"></circle><circle class="dot" id="class_2" r="4" cx="378.9969040247678" cy="174.41614043782204" fill="#FABFD2"></circle><circle class="dot" id="class_2" r="4" cx="526.5964912280702" cy="211.6341819054016" fill="#FABFD2"></circle><circle class="dot" id="class_2" r="4" cx="397.8369453044376" cy="321.9053165155575" fill="#FABFD2"></circle><circle class="dot" id="class_2" r="4" cx="442.7987616099071" cy="275.79776368452525" fill="#FABFD2"></circle><circle class="dot" id="class_2" r="4" cx="365.47368421052636" cy="121.38761676950259" fill="#FABFD2"></circle><circle class="dot" id="class_2" r="4" cx="340.6233230134159" cy="336.06815264827804" fill="#FABFD2"></circle><circle class="dot" id="class_2" r="4" cx="368.24767801857587" cy="250.72359738383017" fill="#FABFD2"></circle><circle class="dot" id="class_2" r="4" cx="379.22807017543863" cy="10.066736770659304" fill="#FABFD2"></circle><circle class="dot" id="class_2" r="4" cx="391.1331269349845" cy="326.71873338774947" fill="#FABFD2"></circle><circle class="dot" id="class_2" r="4" cx="398.7616099071208" cy="321.4201983986464" fill="#FABFD2"></circle><circle class="dot" id="class_2" r="4" cx="213.48194014447884" cy="343.10006886597387" fill="#FABFD2"></circle><circle class="dot" id="class_3" r="4" cx="477.58926728586175" cy="259.5311500164014" fill="#D7B5A6"></circle><circle class="dot" id="class_3" r="4" cx="509.6057791537668" cy="266.84864597134055" fill="#D7B5A6"></circle><circle class="dot" id="class_3" r="4" cx="507.1785345717235" cy="221.43616033495687" fill="#D7B5A6"></circle><circle class="dot" id="class_3" r="4" cx="490.9969040247678" cy="323.1473536215309" fill="#D7B5A6"></circle><circle class="dot" id="class_3" r="4" cx="274.5098039215686" cy="328.2767657998362" fill="#D7B5A6"></circle><circle class="dot" id="class_3" r="4" cx="395.87203302373587" cy="285.0814526552809" fill="#D7B5A6"></circle><circle class="dot" id="class_3" r="4" cx="542.4313725490197" cy="123.30002117862597" fill="#D7B5A6"></circle><circle class="dot" id="class_3" r="4" cx="472.27244582043335" cy="304.21121242388665" fill="#D7B5A6"></circle><circle class="dot" id="class_3" r="4" cx="430.77812177502585" cy="318.1874725166927" fill="#D7B5A6"></circle><circle class="dot" id="class_3" r="4" cx="512.6109391124871" cy="300.59778160272015" fill="#D7B5A6"></circle><circle class="dot" id="class_3" r="4" cx="527.1744066047471" cy="294.5548817016388" fill="#D7B5A6"></circle><circle class="dot" id="class_3" r="4" cx="401.18885448916416" cy="288.99475240711956" fill="#D7B5A6"></circle><circle class="dot" id="class_3" r="4" cx="325.13519091847274" cy="315.6338915852811" fill="#D7B5A6"></circle><circle class="dot" id="class_3" r="4" cx="427.0794633642931" cy="323.4318106364333" fill="#D7B5A6"></circle><circle class="dot" id="class_3" r="4" cx="335.07533539731685" cy="309.44534397689233" fill="#D7B5A6"></circle><circle class="dot" id="class_3" r="4" cx="376.6852425180598" cy="335.80186332216374" fill="#D7B5A6"></circle><circle class="dot" id="class_3" r="4" cx="259.13725490196083" cy="340.3018365299261" fill="#D7B5A6"></circle><circle class="dot" id="class_3" r="4" cx="360.9659442724458" cy="328.83077824220805" fill="#D7B5A6"></circle><circle class="dot" id="class_3" r="4" cx="487.41382868937046" cy="301.49350989937744" fill="#D7B5A6"></circle><circle class="dot" id="class_3" r="4" cx="443.2610939112488" cy="267.76723697748406" fill="#D7B5A6"></circle><circle class="dot" id="class_3" r="4" cx="517.8121775025801" cy="153.57484149343622" fill="#D7B5A6"></circle><circle class="dot" id="class_3" r="4" cx="350.10113519091846" cy="326.8726484141122" fill="#D7B5A6"></circle><circle class="dot" id="class_3" r="4" cx="483.02167182662544" cy="295.0814384794937" fill="#D7B5A6"></circle><circle class="dot" id="class_3" r="4" cx="445.688338493292" cy="319.17230414094587" fill="#D7B5A6"></circle><circle class="dot" id="class_3" r="4" cx="368.1320949432405" cy="297.1444918136247" fill="#D7B5A6"></circle><circle class="dot" id="class_3" r="4" cx="524.9783281733746" cy="252.95118057372815" fill="#D7B5A6"></circle><circle class="dot" id="class_3" r="4" cx="434.8235294117647" cy="301.1796579722784" fill="#D7B5A6"></circle><circle class="dot" id="class_3" r="4" cx="452.5077399380805" cy="265.9409759916034" fill="#D7B5A6"></circle><circle class="dot" id="class_3" r="4" cx="528.4458204334367" cy="78.75642056838672" fill="#D7B5A6"></circle><circle class="dot" id="class_3" r="4" cx="486.2579979360165" cy="285.45929975580793" fill="#D7B5A6"></circle><circle class="dot" id="class_4" r="4" cx="479.0918472652219" cy="326.2284099218035" fill="#A0CBE8"></circle><circle class="dot" id="class_4" r="4" cx="514.2291021671828" cy="145.64413500906264" fill="#A0CBE8"></circle><circle class="dot" id="class_4" r="4" cx="521.0485036119712" cy="148.860122121571" fill="#A0CBE8"></circle><circle class="dot" id="class_4" r="4" cx="488.22291021671833" cy="321.2915956577863" fill="#A0CBE8"></circle><circle class="dot" id="class_4" r="4" cx="495.73581011351905" cy="283.2476388100164" fill="#A0CBE8"></circle><circle class="dot" id="class_4" r="4" cx="489.3787409700723" cy="229.61162028963403" fill="#A0CBE8"></circle><circle class="dot" id="class_4" r="4" cx="534.3405572755418" cy="251.58829771761324" fill="#A0CBE8"></circle><circle class="dot" id="class_4" r="4" cx="531.1042311661506" cy="153.3565230309761" fill="#A0CBE8"></circle><circle class="dot" id="class_4" r="4" cx="525.3250773993808" cy="181.2440273864867" fill="#A0CBE8"></circle><circle class="dot" id="class_4" r="4" cx="533.3003095975232" cy="155.3428229832604" fill="#A0CBE8"></circle><circle class="dot" id="class_4" r="4" cx="479.43859649122805" cy="301.5010627587613" fill="#A0CBE8"></circle><circle class="dot" id="class_4" r="4" cx="519.7770897832819" cy="136.83015223944835" fill="#A0CBE8"></circle><circle class="dot" id="class_4" r="4" cx="534.5717234262125" cy="211.04291549444721" fill="#A0CBE8"></circle><circle class="dot" id="class_4" r="4" cx="472.73477812177504" cy="240.21981542558126" fill="#A0CBE8"></circle><circle class="dot" id="class_4" r="4" cx="560" cy="133.9050522788854" fill="#A0CBE8"></circle><circle class="dot" id="class_4" r="4" cx="513.0732714138287" cy="238.19411812570013" fill="#A0CBE8"></circle><circle class="dot" id="class_4" r="4" cx="530.6418988648091" cy="197.52237860635572" fill="#A0CBE8"></circle><circle class="dot" id="class_4" r="4" cx="473.65944272445824" cy="278.3950287215623" fill="#A0CBE8"></circle><circle class="dot" id="class_4" r="4" cx="512.7265221878225" cy="87.08967404478585" fill="#A0CBE8"></circle><circle class="dot" id="class_4" r="4" cx="478.86068111455114" cy="281.45260991834465" fill="#A0CBE8"></circle><circle class="dot" id="class_4" r="4" cx="516.0784313725491" cy="269.9651190581834" fill="#A0CBE8"></circle><circle class="dot" id="class_4" r="4" cx="526.249742002064" cy="249.7638739137449" fill="#A0CBE8"></circle><circle class="dot" id="class_4" r="4" cx="549.5975232198143" cy="154.95762715468425" fill="#A0CBE8"></circle><circle class="dot" id="class_4" r="4" cx="548.326109391125" cy="108.12183578711483" fill="#A0CBE8"></circle><circle class="dot" id="class_4" r="4" cx="486.2579979360165" cy="269.2598452967999" fill="#A0CBE8"></circle><circle class="dot" id="class_4" r="4" cx="503.24871001032" cy="246.33181378345807" fill="#A0CBE8"></circle><circle class="dot" id="class_4" r="4" cx="478.39834881320945" cy="263.32207303308826" fill="#A0CBE8"></circle><circle class="dot" id="class_4" r="4" cx="486.2579979360165" cy="209.86201572321608" fill="#A0CBE8"></circle><circle class="dot" id="class_4" r="4" cx="488.1073271413829" cy="247.97149872942424" fill="#A0CBE8"></circle><circle class="dot" id="class_4" r="4" cx="494.8111455108359" cy="182.790832575165" fill="#A0CBE8"></circle><circle class="dot" id="class_4" r="4" cx="547.7481940144479" cy="222.13367710562184" fill="#A0CBE8"></circle><circle class="dot" id="class_4" r="4" cx="550.0598555211558" cy="146.72307117861183" fill="#A0CBE8"></circle><circle class="dot" id="class_4" r="4" cx="548.2105263157895" cy="69.62909620001022" fill="#A0CBE8"></circle><circle class="dot" id="class_4" r="4" cx="370.90608875129" cy="317.60181971744254" fill="#A0CBE8"></circle><circle class="dot" id="class_4" r="4" cx="526.0185758513932" cy="177.1301685983067" fill="#A0CBE8"></circle><circle class="dot" id="class_1" r="4" cx="127.60371517027863" cy="354.6162401786603" fill="#E15759"></circle><circle class="dot" id="class_1" r="4" cx="224.9246646026832" cy="355.9066564109572" fill="#E15759"></circle><circle class="dot" id="class_1" r="4" cx="208.97420020639834" cy="353.961590988282" fill="#E15759"></circle><circle class="dot" id="class_1" r="4" cx="310.9184726522188" cy="354.27360573336875" fill="#E15759"></circle><circle class="dot" id="class_1" r="4" cx="320.1651186790506" cy="353.0518796951979" fill="#E15759"></circle><circle class="dot" id="class_1" r="4" cx="230.01031991744065" cy="356.02607324175585" fill="#E15759"></circle><circle class="dot" id="class_1" r="4" cx="340.9700722394221" cy="349.2723880332541" fill="#E15759"></circle><circle class="dot" id="class_1" r="4" cx="457.593395252838" cy="347.3206883422012" fill="#E15759"></circle><circle class="dot" id="class_5" r="4" cx="536.1898864809081" cy="163.8032502811768" fill="#4E79A7"></circle><circle class="dot" id="class_5" r="4" cx="136.50361197110428" cy="356.6966446762406" fill="#4E79A7"></circle><circle class="dot" id="class_5" r="4" cx="438.1754385964913" cy="353.35225895420683" fill="#4E79A7"></circle><circle class="dot" id="class_5" r="4" cx="410.08875128998966" cy="328.44527621662985" fill="#4E79A7"></circle><circle class="dot" id="class_5" r="4" cx="417.1393188854489" cy="184.4046949072918" fill="#4E79A7"></circle><circle class="dot" id="class_5" r="4" cx="536.0743034055728" cy="225.1595158798585" fill="#4E79A7"></circle><circle class="dot" id="class_5" r="4" cx="303.17440660474716" cy="347.07695552857115" fill="#4E79A7"></circle><circle class="dot" id="class_5" r="4" cx="554.5675954592364" cy="174.1862885549515" fill="#4E79A7"></circle><circle class="dot" id="class_5" r="4" cx="463.02579979360166" cy="328.46119846073634" fill="#4E79A7"></circle><circle class="dot" id="class_5" r="4" cx="433.7832817337461" cy="318.68330752867547" fill="#4E79A7"></circle><circle class="dot" id="class_5" r="4" cx="503.8266253869969" cy="207.58033772962295" fill="#4E79A7"></circle><circle class="dot" id="class_5" r="4" cx="444.7636738906089" cy="316.44214960502006" fill="#4E79A7"></circle><circle class="dot" id="class_5" r="4" cx="427.1950464396285" cy="314.42522995253097" fill="#4E79A7"></circle><circle class="dot" id="class_5" r="4" cx="326.05985552115584" cy="344.5161279347778" fill="#4E79A7"></circle><circle class="dot" id="class_5" r="4" cx="338.31166150670794" cy="353.3434813068148" fill="#4E79A7"></circle><circle class="dot" id="class_5" r="4" cx="451.3519091847266" cy="87.66726365631547" fill="#4E79A7"></circle><circle class="dot" id="class_5" r="4" cx="517.1186790505677" cy="192.2535447264513" fill="#4E79A7"></circle><circle class="dot" id="class_5" r="4" cx="264.9164086687307" cy="344.41702217178164" fill="#4E79A7"></circle><circle class="dot" id="class_5" r="4" cx="380.499484004128" cy="336.86212147458804" fill="#4E79A7"></circle><circle class="dot" id="class_5" r="4" cx="366.5139318885449" cy="325.2828735794798" fill="#4E79A7"></circle><circle class="dot" id="class_5" r="4" cx="497.3539731682146" cy="218.93779692958122" fill="#4E79A7"></circle><circle class="dot" id="class_5" r="4" cx="353.22187822497426" cy="349.12796511395493" fill="#4E79A7"></circle><circle class="dot" id="class_5" r="4" cx="500.82146542827667" cy="284.5831680672817" fill="#4E79A7"></circle><circle class="dot" id="class_5" r="4" cx="435.9793601651188" cy="340.1569032822901" fill="#4E79A7"></circle><circle class="dot" id="class_5" r="4" cx="454.1259029927761" cy="337.58556292475976" fill="#4E79A7"></circle><circle class="dot" id="class_5" r="4" cx="337.9649122807018" cy="356.1479396485709" fill="#4E79A7"></circle><circle class="dot" id="class_5" r="4" cx="351.02579979360166" cy="336.5059122955391" fill="#4E79A7"></circle></g><g transform="translate(0,360)" fill="none" font-size="10" font-family="sans-serif" text-anchor="middle"><path class="domain" stroke="#000" d="M0.5,6V0.5H560.5V6"></path><g class="tick" opacity="1" transform="translate(21.18937048503611,0)"><line stroke="#000" y2="6"></line><text fill="#000" y="9" dy="0.71em">30</text></g><g class="tick" opacity="1" transform="translate(78.98090815273478,0)"><line stroke="#000" y2="6"></line><text fill="#000" y="9" dy="0.71em">35</text></g><g class="tick" opacity="1" transform="translate(136.77244582043343,0)"><line stroke="#000" y2="6"></line><text fill="#000" y="9" dy="0.71em">40</text></g><g class="tick" opacity="1" transform="translate(194.5639834881321,0)"><line stroke="#000" y2="6"></line><text fill="#000" y="9" dy="0.71em">45</text></g><g class="tick" opacity="1" transform="translate(252.35552115583076,0)"><line stroke="#000" y2="6"></line><text fill="#000" y="9" dy="0.71em">50</text></g><g class="tick" opacity="1" transform="translate(310.14705882352945,0)"><line stroke="#000" y2="6"></line><text fill="#000" y="9" dy="0.71em">55</text></g><g class="tick" opacity="1" transform="translate(367.9385964912281,0)"><line stroke="#000" y2="6"></line><text fill="#000" y="9" dy="0.71em">60</text></g><g class="tick" opacity="1" transform="translate(425.7301341589268,0)"><line stroke="#000" y2="6"></line><text fill="#000" y="9" dy="0.71em">65</text></g><g class="tick" opacity="1" transform="translate(483.52167182662544,0)"><line stroke="#000" y2="6"></line><text fill="#000" y="9" dy="0.71em">70</text></g><g class="tick" opacity="1" transform="translate(541.313209494324,0)"><line stroke="#000" y2="6"></line><text fill="#000" y="9" dy="0.71em">75</text></g></g><g fill="none" font-size="10" font-family="sans-serif" text-anchor="end"><path class="domain" stroke="#000" d="M-6,360.5H0.5V0.5H-6"></path><g class="tick" opacity="1" transform="translate(0,312.3551143830088)"><line stroke="#000" x2="-6"></line><text fill="#000" x="-9" dy="0.32em">5,000</text></g><g class="tick" opacity="1" transform="translate(0,261.32228070836976)"><line stroke="#000" x2="-6"></line><text fill="#000" x="-9" dy="0.32em">10,000</text></g><g class="tick" opacity="1" transform="translate(0,210.28944703373074)"><line stroke="#000" x2="-6"></line><text fill="#000" x="-9" dy="0.32em">15,000</text></g><g class="tick" opacity="1" transform="translate(0,159.25661335909172)"><line stroke="#000" x2="-6"></line><text fill="#000" x="-9" dy="0.32em">20,000</text></g><g class="tick" opacity="1" transform="translate(0,108.2237796844527)"><line stroke="#000" x2="-6"></line><text fill="#000" x="-9" dy="0.32em">25,000</text></g><g class="tick" opacity="1" transform="translate(0,57.19094600981367)"><line stroke="#000" x2="-6"></line><text fill="#000" x="-9" dy="0.32em">30,000</text></g><g class="tick" opacity="1" transform="translate(0,6.158112335174565)"><line stroke="#000" x2="-6"></line><text fill="#000" x="-9" dy="0.32em">35,000</text></g></g></g><text x="0" y="20">year-1980</text></svg>