<?xml version="1.0" standalone="no"?>
<svg width="600" height="400" style="background-color: rgb(255, 255, 255);" xmlns="http://www.w3.org/2000/svg"><g transform="translate(20,20)"><g><circle class="dot" id="class_0" r="4" cx="72.19855040632551" cy="304.3342131205628" fill="rgb(255, 168, 187)"></circle><circle class="dot" id="class_0" r="4" cx="176.13002415989462" cy="352.79741934276734" fill="rgb(255, 168, 187)"></circle><circle class="dot" id="class_0" r="4" cx="288.17922249066555" cy="347.6872549352088" fill="rgb(255, 168, 187)"></circle><circle class="dot" id="class_0" r="4" cx="127.30068086975618" cy="355.29619438425226" fill="rgb(255, 168, 187)"></circle><circle class="dot" id="class_0" r="4" cx="155.5897210630354" cy="358.7317732604712" fill="rgb(255, 168, 187)"></circle><circle class="dot" id="class_0" r="4" cx="182.1568196793323" cy="346.60036883237774" fill="rgb(255, 168, 187)"></circle><circle class="dot" id="class_0" r="4" cx="311.7944212607072" cy="355.41670223626556" fill="rgb(255, 168, 187)"></circle><circle class="dot" id="class_0" r="4" cx="165.7983746980013" cy="351.02316487181497" fill="rgb(255, 168, 187)"></circle><circle class="dot" id="class_0" r="4" cx="204.05007687239183" cy="343.88173274036376" fill="rgb(255, 168, 187)"></circle><circle class="dot" id="class_0" r="4" cx="156.20470019767183" cy="354.37359889888216" fill="rgb(255, 168, 187)"></circle><circle class="dot" id="class_0" r="4" cx="286.4572809136833" cy="333.3378745478763" fill="rgb(255, 168, 187)"></circle><circle class="dot" id="class_0" r="4" cx="195.07138150669888" cy="338.90407434650365" fill="rgb(255, 168, 187)"></circle><circle class="dot" id="class_0" r="4" cx="105.89940698440593" cy="354.76353915365013" fill="rgb(255, 168, 187)"></circle><circle class="dot" id="class_0" r="4" cx="149.6859213705249" cy="358.65746885564903" fill="rgb(255, 168, 187)"></circle><circle class="dot" id="class_0" r="4" cx="145.1350757742148" cy="358.1364960456351" fill="rgb(255, 168, 187)"></circle><circle class="dot" id="class_0" r="4" cx="191.38150669887983" cy="261.81693798961794" fill="rgb(255, 168, 187)"></circle><circle class="dot" id="class_0" r="4" cx="218.44058862288603" cy="351.2189243519414" fill="rgb(255, 168, 187)"></circle><circle class="dot" id="class_0" r="4" cx="98.76564902262241" cy="356.09649281805946" fill="rgb(255, 168, 187)"></circle><circle class="dot" id="class_0" r="4" cx="74.65846694487156" cy="355.29977278335133" fill="rgb(255, 168, 187)"></circle><circle class="dot" id="class_0" r="4" cx="258.6602240281133" cy="351.50003917528426" fill="rgb(255, 168, 187)"></circle><circle class="dot" id="class_0" r="4" cx="220.03953437294095" cy="358.7564010660355" fill="rgb(255, 168, 187)"></circle><circle class="dot" id="class_0" r="4" cx="163.70744564023718" cy="355.5818348299851" fill="rgb(255, 168, 187)"></circle><circle class="dot" id="class_0" r="4" cx="156.32769602459922" cy="345.0411340484674" fill="rgb(255, 168, 187)"></circle><circle class="dot" id="class_0" r="4" cx="115.98506479244459" cy="358.67493986301514" fill="rgb(255, 168, 187)"></circle><circle class="dot" id="class_0" r="4" cx="78.47133757961782" cy="357.93452699060146" fill="rgb(255, 168, 187)"></circle><circle class="dot" id="class_0" r="4" cx="203.18910608390073" cy="346.9365278536271" fill="rgb(255, 168, 187)"></circle><circle class="dot" id="class_0" r="4" cx="382.14803426312324" cy="339.6911116542378" fill="rgb(255, 168, 187)"></circle><circle class="dot" id="class_0" r="4" cx="99.62661981111351" cy="356.52369052227084" fill="rgb(255, 168, 187)"></circle><circle class="dot" id="class_0" r="4" cx="263.58005710520536" cy="325.153128584977" fill="rgb(255, 168, 187)"></circle><circle class="dot" id="class_0" r="4" cx="86.2200746760378" cy="353.3407045236344" fill="rgb(255, 168, 187)"></circle><circle class="dot" id="class_0" r="4" cx="113.64814408082582" cy="347.5868492663697" fill="rgb(255, 168, 187)"></circle><circle class="dot" id="class_0" r="4" cx="384.60795080166923" cy="315.49766059235367" fill="rgb(255, 168, 187)"></circle><circle class="dot" id="class_0" r="4" cx="163.215462332528" cy="357.3313562483409" fill="rgb(255, 168, 187)"></circle><circle class="dot" id="class_0" r="4" cx="299.6178343949045" cy="347.496863053731" fill="rgb(255, 168, 187)"></circle><circle class="dot" id="class_0" r="4" cx="141.19920931254117" cy="347.00872731780277" fill="rgb(255, 168, 187)"></circle><circle class="dot" id="class_0" r="4" cx="59.52998023281352" cy="348.81213521670946" fill="rgb(255, 168, 187)"></circle><circle class="dot" id="class_0" r="4" cx="109.71227761915218" cy="351.5826580956602" fill="rgb(255, 168, 187)"></circle><circle class="dot" id="class_0" r="4" cx="266.7779486053152" cy="283.10872837027307" fill="rgb(255, 168, 187)"></circle><circle class="dot" id="class_0" r="4" cx="187.69163189106087" cy="346.1460173938262" fill="rgb(255, 168, 187)"></circle><circle class="dot" id="class_0" r="4" cx="207.6169558532835" cy="331.0658016140217" fill="rgb(255, 168, 187)"></circle><circle class="dot" id="class_0" r="4" cx="191.38150669887983" cy="354.582724752114" fill="rgb(255, 168, 187)"></circle><circle class="dot" id="class_0" r="4" cx="223.4834175269053" cy="347.41245493380546" fill="rgb(255, 168, 187)"></circle><circle class="dot" id="class_0" r="4" cx="230.1251921809796" cy="353.70464876141784" fill="rgb(255, 168, 187)"></circle><circle class="dot" id="class_0" r="4" cx="219.67054689215905" cy="345.68998200275746" fill="rgb(255, 168, 187)"></circle><circle class="dot" id="class_0" r="4" cx="291.8690972984845" cy="356.238050076538" fill="rgb(255, 168, 187)"></circle><circle class="dot" id="class_5" r="4" cx="488.0474412475292" cy="192.5486036642339" fill="rgb(16, 255, 134)"></circle><circle class="dot" id="class_5" r="4" cx="153.7447836591259" cy="358.8443875850601" fill="rgb(16, 255, 134)"></circle><circle class="dot" id="class_5" r="4" cx="387.6828464748518" cy="356.6054674663882" fill="rgb(16, 255, 134)"></circle><circle class="dot" id="class_5" r="4" cx="350.538106742807" cy="337.09677230740084" fill="rgb(16, 255, 134)"></circle><circle class="dot" id="class_5" r="4" cx="356.4419064353174" cy="210.58068295968687" fill="rgb(16, 255, 134)"></circle><circle class="dot" id="class_5" r="4" cx="491.1223369207117" cy="286.8046884044667" fill="rgb(16, 255, 134)"></circle><circle class="dot" id="class_5" r="4" cx="202.45113112233696" cy="353.43353240614596" fill="rgb(16, 255, 134)"></circle><circle class="dot" id="class_5" r="4" cx="503.544915440369" cy="223.05214054922575" fill="rgb(16, 255, 134)"></circle><circle class="dot" id="class_5" r="4" cx="379.44212607072257" cy="340.0116941147029" fill="rgb(16, 255, 134)"></circle><circle class="dot" id="class_5" r="4" cx="344.75730287722376" cy="341.285183205848" fill="rgb(16, 255, 134)"></circle><circle class="dot" id="class_5" r="4" cx="426.1805403030969" cy="274.84809929706677" fill="rgb(16, 255, 134)"></circle><circle class="dot" id="class_5" r="4" cx="371.0784098396661" cy="336.58737667094283" fill="rgb(16, 255, 134)"></circle><circle class="dot" id="class_5" r="4" cx="375.1372721282671" cy="327.7378904518723" fill="rgb(16, 255, 134)"></circle><circle class="dot" id="class_5" r="4" cx="264.0720404129146" cy="349.7182069180044" fill="rgb(16, 255, 134)"></circle><circle class="dot" id="class_5" r="4" cx="250.0505161432023" cy="356.1940568170257" fill="rgb(16, 255, 134)"></circle><circle class="dot" id="class_5" r="4" cx="361.3617395124094" cy="32.7522449776701" fill="rgb(16, 255, 134)"></circle><circle class="dot" id="class_5" r="4" cx="494.44322424774873" cy="204.35953087889456" fill="rgb(16, 255, 134)"></circle><circle class="dot" id="class_5" r="4" cx="149.56292554359763" cy="345.17827093158826" fill="rgb(16, 255, 134)"></circle><circle class="dot" id="class_5" r="4" cx="321.1421041071821" cy="343.88899478559426" fill="rgb(16, 255, 134)"></circle><circle class="dot" id="class_5" r="4" cx="463.3252800351417" cy="290.211324346796" fill="rgb(16, 255, 134)"></circle><circle class="dot" id="class_5" r="4" cx="284.2433560289919" cy="350.487983712437" fill="rgb(16, 255, 134)"></circle><circle class="dot" id="class_5" r="4" cx="461.97232593894137" cy="324.27726278195973" fill="rgb(16, 255, 134)"></circle><circle class="dot" id="class_5" r="4" cx="347.58620689655174" cy="348.27084972945664" fill="rgb(16, 255, 134)"></circle><circle class="dot" id="class_5" r="4" cx="217.57961783439492" cy="357.07160657256026" fill="rgb(16, 255, 134)"></circle><circle class="dot" id="class_1" r="4" cx="47.96837250164729" cy="355.04812712905976" fill="rgb(57, 212, 234)"></circle><circle class="dot" id="class_1" r="4" cx="158.6646167362179" cy="355.5566807892592" fill="rgb(57, 212, 234)"></circle><circle class="dot" id="class_1" r="4" cx="116.23105644629914" cy="355.02086814768734" fill="rgb(57, 212, 234)"></circle><circle class="dot" id="class_1" r="4" cx="217.57961783439492" cy="355.4935325698636" fill="rgb(57, 212, 234)"></circle><circle class="dot" id="class_1" r="4" cx="230.49417966176145" cy="356.4541222339033" fill="rgb(57, 212, 234)"></circle><circle class="dot" id="class_1" r="4" cx="141.44520096639582" cy="356.5593692662294" fill="rgb(57, 212, 234)"></circle><circle class="dot" id="class_1" r="4" cx="284.2433560289919" cy="352.3045474903845" fill="rgb(57, 212, 234)"></circle><circle class="dot" id="class_1" r="4" cx="386.69887985943336" cy="350.7162645255522" fill="rgb(57, 212, 234)"></circle><circle class="dot" id="class_4" r="4" cx="440.94003953437306" cy="331.54962222162453" fill="rgb(255, 236, 105)"></circle><circle class="dot" id="class_4" r="4" cx="479.43773336261813" cy="205.11899346415927" fill="rgb(255, 236, 105)"></circle><circle class="dot" id="class_4" r="4" cx="490.0153744783659" cy="201.9516892733394" fill="rgb(255, 236, 105)"></circle><circle class="dot" id="class_4" r="4" cx="430.8543817263343" cy="337.2583265020213" fill="rgb(255, 236, 105)"></circle><circle class="dot" id="class_4" r="4" cx="493.70524928618494" cy="298.96040489702744" fill="rgb(255, 236, 105)"></circle><circle class="dot" id="class_4" r="4" cx="466.8921590160335" cy="278.71866415788924" fill="rgb(255, 236, 105)"></circle><circle class="dot" id="class_4" r="4" cx="487.55545793981986" cy="297.2609810660589" fill="rgb(255, 236, 105)"></circle><circle class="dot" id="class_4" r="4" cx="519.6573687678454" cy="186.1887359948359" fill="rgb(255, 236, 105)"></circle><circle class="dot" id="class_4" r="4" cx="482.5126290358006" cy="225.28979770350975" fill="rgb(255, 236, 105)"></circle><circle class="dot" id="class_4" r="4" cx="504.6518778827147" cy="198.54168542597566" fill="rgb(255, 236, 105)"></circle><circle class="dot" id="class_4" r="4" cx="446.59784757302884" cy="325.7861894844182" fill="rgb(255, 236, 105)"></circle><circle class="dot" id="class_4" r="4" cx="488.2934329013837" cy="184.80189584987565" fill="rgb(255, 236, 105)"></circle><circle class="dot" id="class_4" r="4" cx="498.74807819020435" cy="256.98357327707686" fill="rgb(255, 236, 105)"></circle><circle class="dot" id="class_4" r="4" cx="468.7370964199429" cy="262.9711821931377" fill="rgb(255, 236, 105)"></circle><circle class="dot" id="class_4" r="4" cx="524.9461893257194" cy="221.38944793253899" fill="rgb(255, 236, 105)"></circle><circle class="dot" id="class_4" r="4" cx="489.03140786294756" cy="270.4859255482493" fill="rgb(255, 236, 105)"></circle><circle class="dot" id="class_4" r="4" cx="498.5020865363497" cy="239.75095043917247" fill="rgb(255, 236, 105)"></circle><circle class="dot" id="class_4" r="4" cx="480.7906874588184" cy="306.24118409927837" fill="rgb(255, 236, 105)"></circle><circle class="dot" id="class_4" r="4" cx="472.91895453547113" cy="129.13168859508076" fill="rgb(255, 236, 105)"></circle><circle class="dot" id="class_4" r="4" cx="433.19130243795297" cy="311.8203292828818" fill="rgb(255, 236, 105)"></circle><circle class="dot" id="class_4" r="4" cx="477.83878761256324" cy="324.19180219171096" fill="rgb(255, 236, 105)"></circle><circle class="dot" id="class_4" r="4" cx="465.7851965736877" cy="291.5863768241357" fill="rgb(255, 236, 105)"></circle><circle class="dot" id="class_4" r="4" cx="522.3632769602459" cy="195.0394851782943" fill="rgb(255, 236, 105)"></circle><circle class="dot" id="class_4" r="4" cx="528.2670766527565" cy="192.3816818709648" fill="rgb(255, 236, 105)"></circle><circle class="dot" id="class_4" r="4" cx="476.48583351636296" cy="289.3416681186859" fill="rgb(255, 236, 105)"></circle><circle class="dot" id="class_4" r="4" cx="443.27696024599175" cy="282.0478382844266" fill="rgb(255, 236, 105)"></circle><circle class="dot" id="class_4" r="4" cx="453.4856138809576" cy="292.9896355061388" fill="rgb(255, 236, 105)"></circle><circle class="dot" id="class_4" r="4" cx="451.8866681309028" cy="266.1081752386476" fill="rgb(255, 236, 105)"></circle><circle class="dot" id="class_4" r="4" cx="474.8868877663079" cy="267.8214916778833" fill="rgb(255, 236, 105)"></circle><circle class="dot" id="class_4" r="4" cx="470.95102130463437" cy="248.82261314348324" fill="rgb(255, 236, 105)"></circle><circle class="dot" id="class_4" r="4" cx="505.6358444981331" cy="264.15352735428837" fill="rgb(255, 236, 105)"></circle><circle class="dot" id="class_4" r="4" cx="535.8928179222492" cy="171.18492956050008" fill="rgb(255, 236, 105)"></circle><circle class="dot" id="class_4" r="4" cx="516.7054689215902" cy="91.62006756859472" fill="rgb(255, 236, 105)"></circle><circle class="dot" id="class_4" r="4" cx="301.7087634526685" cy="326.7252035068311" fill="rgb(255, 236, 105)"></circle><circle class="dot" id="class_4" r="4" cx="502.68394465187794" cy="204.32532559338858" fill="rgb(255, 236, 105)"></circle><circle class="dot" id="class_2" r="4" cx="268.1309027015155" cy="321.6821867058965" fill="rgb(152, 149, 121)"></circle><circle class="dot" id="class_2" r="4" cx="375.5062596090489" cy="190.3257863415079" fill="rgb(152, 149, 121)"></circle><circle class="dot" id="class_2" r="4" cx="148.94794640896114" cy="326.40925191578833" fill="rgb(152, 149, 121)"></circle><circle class="dot" id="class_2" r="4" cx="330.2437952998023" cy="263.7132790180686" fill="rgb(152, 149, 121)"></circle><circle class="dot" id="class_2" r="4" cx="492.7212826707665" cy="248.79577515024013" fill="rgb(152, 149, 121)"></circle><circle class="dot" id="class_2" r="4" cx="281.2914561827367" cy="341.22150875129074" fill="rgb(152, 149, 121)"></circle><circle class="dot" id="class_2" r="4" cx="413.2659784757304" cy="291.9621087295397" fill="rgb(152, 149, 121)"></circle><circle class="dot" id="class_2" r="4" cx="248.45157039314736" cy="80.55218440215594" fill="rgb(152, 149, 121)"></circle><circle class="dot" id="class_2" r="4" cx="251.28047441247531" cy="344.1464290266637" fill="rgb(152, 149, 121)"></circle><circle class="dot" id="class_2" r="4" cx="225.45135075774215" cy="255.92320942639196" fill="rgb(152, 149, 121)"></circle><circle class="dot" id="class_2" r="4" cx="254.60136173951238" cy="153.96735704821836" fill="rgb(152, 149, 121)"></circle><circle class="dot" id="class_2" r="4" cx="277.4785855479903" cy="340.67148776035486" fill="rgb(152, 149, 121)"></circle><circle class="dot" id="class_2" r="4" cx="361.48473533933674" cy="219.87178572639746" fill="rgb(152, 149, 121)"></circle><circle class="dot" id="class_2" r="4" cx="281.5374478365913" cy="332.9699309228645" fill="rgb(152, 149, 121)"></circle><circle class="dot" id="class_2" r="4" cx="87.20404129145618" cy="352.8613042913893" fill="rgb(152, 149, 121)"></circle><circle class="dot" id="class_3" r="4" cx="436.3891939380629" cy="266.86184923713444" fill="rgb(144, 56, 232)"></circle><circle class="dot" id="class_3" r="4" cx="467.7531298045245" cy="319.3639103248508" fill="rgb(144, 56, 232)"></circle><circle class="dot" id="class_3" r="4" cx="459.88139688117724" cy="261.5976031742505" fill="rgb(144, 56, 232)"></circle><circle class="dot" id="class_3" r="4" cx="434.0522732264442" cy="339.1339338651037" fill="rgb(144, 56, 232)"></circle><circle class="dot" id="class_3" r="4" cx="180.06589062156823" cy="333.61835788902516" fill="rgb(144, 56, 232)"></circle><circle class="dot" id="class_3" r="4" cx="337.5005490885131" cy="319.7824777724115" fill="rgb(144, 56, 232)"></circle><circle class="dot" id="class_3" r="4" cx="510.6786734021525" cy="179.76824603481805" fill="rgb(144, 56, 232)"></circle><circle class="dot" id="class_3" r="4" cx="379.93410937843186" cy="308.09532106776624" fill="rgb(144, 56, 232)"></circle><circle class="dot" id="class_3" r="4" cx="365.7895892817922" cy="332.3727592614465" fill="rgb(144, 56, 232)"></circle><circle class="dot" id="class_3" r="4" cx="439.0951021304635" cy="314.7162013773328" fill="rgb(144, 56, 232)"></circle><circle class="dot" id="class_3" r="4" cx="476.6088293432901" cy="312.7281901837262" fill="rgb(144, 56, 232)"></circle><circle class="dot" id="class_3" r="4" cx="327.78387876125635" cy="311.31493303365215" fill="rgb(144, 56, 232)"></circle><circle class="dot" id="class_3" r="4" cx="313.0243795299802" cy="318.54919304761495" fill="rgb(144, 56, 232)"></circle><circle class="dot" id="class_3" r="4" cx="408.46914122556564" cy="341.930137019942" fill="rgb(144, 56, 232)"></circle><circle class="dot" id="class_3" r="4" cx="257.30726993191297" cy="324.87453969041" fill="rgb(144, 56, 232)"></circle><circle class="dot" id="class_3" r="4" cx="351.03009005051615" cy="337.614587706445" fill="rgb(144, 56, 232)"></circle><circle class="dot" id="class_3" r="4" cx="197.65429387217222" cy="347.70851483573864" fill="rgb(144, 56, 232)"></circle><circle class="dot" id="class_3" r="4" cx="261.98111135515046" cy="337.31221298257225" fill="rgb(144, 56, 232)"></circle><circle class="dot" id="class_3" r="4" cx="457.4214803426312" cy="285.7601116086307" fill="rgb(144, 56, 232)"></circle><circle class="dot" id="class_3" r="4" cx="371.69338897430265" cy="295.9244490025505" fill="rgb(144, 56, 232)"></circle><circle class="dot" id="class_3" r="4" cx="470.0900505161432" cy="257.33267768330234" fill="rgb(144, 56, 232)"></circle><circle class="dot" id="class_3" r="4" cx="276.86360641335386" cy="315.34494714844857" fill="rgb(144, 56, 232)"></circle><circle class="dot" id="class_3" r="4" cx="420.8917197452229" cy="311.4439658952839" fill="rgb(144, 56, 232)"></circle><circle class="dot" id="class_3" r="4" cx="421.87568636064145" cy="338.2788017274546" fill="rgb(144, 56, 232)"></circle><circle class="dot" id="class_3" r="4" cx="274.6496815286624" cy="302.52417465861953" fill="rgb(144, 56, 232)"></circle><circle class="dot" id="class_3" r="4" cx="498.3790907094224" cy="275.8594180306877" fill="rgb(144, 56, 232)"></circle><circle class="dot" id="class_3" r="4" cx="395.80057105205367" cy="311.62846394295144" fill="rgb(144, 56, 232)"></circle><circle class="dot" id="class_3" r="4" cx="424.0896112453328" cy="297.2504563628263" fill="rgb(144, 56, 232)"></circle><circle class="dot" id="class_3" r="4" cx="489.40039534372943" cy="118.11127184022095" fill="rgb(144, 56, 232)"></circle><circle class="dot" id="class_3" r="4" cx="461.97232593894137" cy="300.8900039876931" fill="rgb(144, 56, 232)"></circle></g><g transform="translate(0,360)" fill="none" font-size="10" font-family="sans-serif" text-anchor="middle"><path class="domain" stroke="#000" d="M0.5,6V0.5H560.5V6"></path><g class="tick" opacity="1" transform="translate(48.09938502086538,0)"><line stroke="#000" y2="6"></line><text fill="#000" y="9" dy="0.71em">35</text></g><g class="tick" opacity="1" transform="translate(109.59729848451572,0)"><line stroke="#000" y2="6"></line><text fill="#000" y="9" dy="0.71em">40</text></g><g class="tick" opacity="1" transform="translate(171.09521194816605,0)"><line stroke="#000" y2="6"></line><text fill="#000" y="9" dy="0.71em">45</text></g><g class="tick" opacity="1" transform="translate(232.5931254118164,0)"><line stroke="#000" y2="6"></line><text fill="#000" y="9" dy="0.71em">50</text></g><g class="tick" opacity="1" transform="translate(294.0910388754668,0)"><line stroke="#000" y2="6"></line><text fill="#000" y="9" dy="0.71em">55</text></g><g class="tick" opacity="1" transform="translate(355.5889523391171,0)"><line stroke="#000" y2="6"></line><text fill="#000" y="9" dy="0.71em">60</text></g><g class="tick" opacity="1" transform="translate(417.0868658027675,0)"><line stroke="#000" y2="6"></line><text fill="#000" y="9" dy="0.71em">65</text></g><g class="tick" opacity="1" transform="translate(478.5847792664178,0)"><line stroke="#000" y2="6"></line><text fill="#000" y="9" dy="0.71em">70</text></g><g class="tick" opacity="1" transform="translate(540.0826927300682,0)"><line stroke="#000" y2="6"></line><text fill="#000" y="9" dy="0.71em">75</text></g></g><g fill="none" font-size="10" font-family="sans-serif" text-anchor="end"><path class="domain" stroke="#000" d="M-6,360.5H0.5V0.5H-6"></path><g class="tick" opacity="1" transform="translate(0,311.6950566638328)"><line stroke="#000" x2="-6"></line><text fill="#000" x="-9" dy="0.32em">5,000</text></g><g class="tick" opacity="1" transform="translate(0,259.07154050081215)"><line stroke="#000" x2="-6"></line><text fill="#000" x="-9" dy="0.32em">10,000</text></g><g class="tick" opacity="1" transform="translate(0,206.4480243377915)"><line stroke="#000" x2="-6"></line><text fill="#000" x="-9" dy="0.32em">15,000</text></g><g class="tick" opacity="1" transform="translate(0,153.82450817477087)"><line stroke="#000" x2="-6"></line><text fill="#000" x="-9" dy="0.32em">20,000</text></g><g class="tick" opacity="1" transform="translate(0,101.2009920117502)"><line stroke="#000" x2="-6"></line><text fill="#000" x="-9" dy="0.32em">25,000</text></g><g class="tick" opacity="1" transform="translate(0,48.57747584872959)"><line stroke="#000" x2="-6"></line><text fill="#000" x="-9" dy="0.32em">30,000</text></g></g></g><text x="0" y="20">year-1970</text></svg>