<?xml version="1.0" standalone="no"?>
<svg width="600" height="400" style="background-color: rgb(255, 255, 255);" xmlns="http://www.w3.org/2000/svg"><g transform="translate(20,20)"><g><circle class="dot" id="class_0" r="4" cx="11.673890608875107" cy="328.5630599967509" fill="rgb(255, 235, 156)"></circle><circle class="dot" id="class_0" r="4" cx="96.16511867905058" cy="351.6151012959221" fill="rgb(255, 235, 156)"></circle><circle class="dot" id="class_0" r="4" cx="215.1001031991744" cy="354.4649788596486" fill="rgb(255, 235, 156)"></circle><circle class="dot" id="class_0" r="4" cx="54.092879256965944" cy="357.6243195267782" fill="rgb(255, 235, 156)"></circle><circle class="dot" id="class_0" r="4" cx="118.01031991744068" cy="359.59908605865206" fill="rgb(255, 235, 156)"></circle><circle class="dot" id="class_0" r="4" cx="111.42208462332303" cy="351.4773126450006" fill="rgb(255, 235, 156)"></circle><circle class="dot" id="class_0" r="4" cx="220.87925696594428" cy="356.96885381106114" fill="rgb(255, 235, 156)"></circle><circle class="dot" id="class_0" r="4" cx="106.10526315789474" cy="351.3765738313268" fill="rgb(255, 235, 156)"></circle><circle class="dot" id="class_0" r="4" cx="137.42827657378743" cy="352.14961919583027" fill="rgb(255, 235, 156)"></circle><circle class="dot" id="class_0" r="4" cx="118.47265221878226" cy="356.09670268356155" fill="rgb(255, 235, 156)"></circle><circle class="dot" id="class_0" r="4" cx="150.25799793601652" cy="342.0082724223387" fill="rgb(255, 235, 156)"></circle><circle class="dot" id="class_0" r="4" cx="97.43653250773995" cy="349.16593354220885" fill="rgb(255, 235, 156)"></circle><circle class="dot" id="class_0" r="4" cx="65.53560371517031" cy="359.2669643770975" fill="rgb(255, 235, 156)"></circle><circle class="dot" id="class_0" r="4" cx="79.40557275541794" cy="359.60531206436036" fill="rgb(255, 235, 156)"></circle><circle class="dot" id="class_0" r="4" cx="58.8317853457172" cy="359.27390484247724" fill="rgb(255, 235, 156)"></circle><circle class="dot" id="class_0" r="4" cx="89.69246646026829" cy="321.6397416491147" fill="rgb(255, 235, 156)"></circle><circle class="dot" id="class_0" r="4" cx="168.75128998968012" cy="353.2621349699374" fill="rgb(255, 235, 156)"></circle><circle class="dot" id="class_0" r="4" cx="74.08875128998964" cy="357.97858945814755" fill="rgb(255, 235, 156)"></circle><circle class="dot" id="class_0" r="4" cx="43.45923632610937" cy="359.0507892936517" fill="rgb(255, 235, 156)"></circle><circle class="dot" id="class_0" r="4" cx="154.41898864809082" cy="354.39332876116947" fill="rgb(255, 235, 156)"></circle><circle class="dot" id="class_0" r="4" cx="147.94633642930856" cy="360" fill="rgb(255, 235, 156)"></circle><circle class="dot" id="class_0" r="4" cx="88.76780185758514" cy="357.2392257638694" fill="rgb(255, 235, 156)"></circle><circle class="dot" id="class_0" r="4" cx="87.14963880288957" cy="348.7648154695262" fill="rgb(255, 235, 156)"></circle><circle class="dot" id="class_0" r="4" cx="89.57688338493293" cy="359.2904394805878" fill="rgb(255, 235, 156)"></circle><circle class="dot" id="class_0" r="4" cx="81.94840041279666" cy="358.41798215608617" fill="rgb(255, 235, 156)"></circle><circle class="dot" id="class_0" r="4" cx="151.5294117647059" cy="355.71344610266505" fill="rgb(255, 235, 156)"></circle><circle class="dot" id="class_0" r="4" cx="215.562435500516" cy="343.1092547760353" fill="rgb(255, 235, 156)"></circle><circle class="dot" id="class_0" r="4" cx="23.92569659442725" cy="358.28733810187913" fill="rgb(255, 235, 156)"></circle><circle class="dot" id="class_0" r="4" cx="139.16202270381837" cy="338.5063993755849" fill="rgb(255, 235, 156)"></circle><circle class="dot" id="class_0" r="4" cx="102.75335397316823" cy="355.41459782866633" fill="rgb(255, 235, 156)"></circle><circle class="dot" id="class_0" r="4" cx="85.30030959752327" cy="352.94654792649345" fill="rgb(255, 235, 156)"></circle><circle class="dot" id="class_0" r="4" cx="273.00722394220844" cy="335.96618904659607" fill="rgb(255, 235, 156)"></circle><circle class="dot" id="class_0" r="4" cx="129.45304437564496" cy="358.0876976565439" fill="rgb(255, 235, 156)"></circle><circle class="dot" id="class_0" r="4" cx="201.23013415892672" cy="353.8682009026574" fill="rgb(255, 235, 156)"></circle><circle class="dot" id="class_0" r="4" cx="111.65325077399378" cy="348.58854806201396" fill="rgb(255, 235, 156)"></circle><circle class="dot" id="class_0" r="4" cx="40.454076367389064" cy="354.42792902240086" fill="rgb(255, 235, 156)"></circle><circle class="dot" id="class_0" r="4" cx="45.88648090815273" cy="351.8729191716464" fill="rgb(255, 235, 156)"></circle><circle class="dot" id="class_0" r="4" cx="177.30443756449944" cy="316.1916804573449" fill="rgb(255, 235, 156)"></circle><circle class="dot" id="class_0" r="4" cx="148.52425180598556" cy="347.04898953571745" fill="rgb(255, 235, 156)"></circle><circle class="dot" id="class_0" r="4" cx="142.0515995872033" cy="351.63622888906343" fill="rgb(255, 235, 156)"></circle><circle class="dot" id="class_0" r="4" cx="140.78018575851394" cy="356.2107100339907" fill="rgb(255, 235, 156)"></circle><circle class="dot" id="class_0" r="4" cx="137.77502579979364" cy="354.3955742058511" fill="rgb(255, 235, 156)"></circle><circle class="dot" id="class_0" r="4" cx="124.71413828689371" cy="355.13218212711087" fill="rgb(255, 235, 156)"></circle><circle class="dot" id="class_0" r="4" cx="150.37358101135192" cy="352.060413802567" fill="rgb(255, 235, 156)"></circle><circle class="dot" id="class_0" r="4" cx="224.6934984520124" cy="358.86962273410677" fill="rgb(255, 235, 156)"></circle><circle class="dot" id="class_2" r="4" cx="159.6202270381837" cy="338.09405407949384" fill="rgb(188, 195, 208)"></circle><circle class="dot" id="class_2" r="4" cx="250.00619195046445" cy="269.41345412616056" fill="rgb(188, 195, 208)"></circle><circle class="dot" id="class_2" r="4" cx="64.14860681114548" cy="336.59481149180033" fill="rgb(188, 195, 208)"></circle><circle class="dot" id="class_2" r="4" cx="136.734778121775" cy="328.77872475185995" fill="rgb(188, 195, 208)"></circle><circle class="dot" id="class_2" r="4" cx="415.6367389060888" cy="324.0935023578587" fill="rgb(188, 195, 208)"></circle><circle class="dot" id="class_2" r="4" cx="160.77605779153762" cy="347.67332522289297" fill="rgb(188, 195, 208)"></circle><circle class="dot" id="class_2" r="4" cx="301.3250773993808" cy="308.60483320627105" fill="rgb(188, 195, 208)"></circle><circle class="dot" id="class_2" r="4" cx="155.80598555211557" cy="341.6146051433725" fill="rgb(188, 195, 208)"></circle><circle class="dot" id="class_2" r="4" cx="157.65531475748196" cy="345.7092755860908" fill="rgb(188, 195, 208)"></circle><circle class="dot" id="class_2" r="4" cx="98.3611971104231" cy="345.72427923919116" fill="rgb(188, 195, 208)"></circle><circle class="dot" id="class_2" r="4" cx="120.78431372549015" cy="303.3391633620544" fill="rgb(188, 195, 208)"></circle><circle class="dot" id="class_2" r="4" cx="177.9979360165119" cy="349.192572681387" fill="rgb(188, 195, 208)"></circle><circle class="dot" id="class_2" r="4" cx="160.77605779153762" cy="348.54312884004355" fill="rgb(188, 195, 208)"></circle><circle class="dot" id="class_2" r="4" cx="42.765737874097006" cy="355.015623134998" fill="rgb(188, 195, 208)"></circle><circle class="dot" id="class_3" r="4" cx="386.04747162022704" cy="299.06771518348717" fill="rgb(212, 248, 246)"></circle><circle class="dot" id="class_3" r="4" cx="304.9081527347782" cy="329.76692454313564" fill="rgb(212, 248, 246)"></circle><circle class="dot" id="class_3" r="4" cx="328.9494324045408" cy="345.21905418581224" fill="rgb(212, 248, 246)"></circle><circle class="dot" id="class_3" r="4" cx="134.76986584107325" cy="337.0592102782395" fill="rgb(212, 248, 246)"></circle><circle class="dot" id="class_3" r="4" cx="251.50877192982458" cy="342.6808851701704" fill="rgb(212, 248, 246)"></circle><circle class="dot" id="class_3" r="4" cx="463.1413828689371" cy="254.88950966235828" fill="rgb(212, 248, 246)"></circle><circle class="dot" id="class_3" r="4" cx="302.0185758513932" cy="324.98075920412595" fill="rgb(212, 248, 246)"></circle><circle class="dot" id="class_3" r="4" cx="233.01547987616095" cy="341.5771470434553" fill="rgb(212, 248, 246)"></circle><circle class="dot" id="class_3" r="4" cx="322.4767801857585" cy="337.98576240643627" fill="rgb(212, 248, 246)"></circle><circle class="dot" id="class_3" r="4" cx="347.9050567595459" cy="310.0134414813584" fill="rgb(212, 248, 246)"></circle><circle class="dot" id="class_3" r="4" cx="220.30134158926734" cy="329.55095359102455" fill="rgb(212, 248, 246)"></circle><circle class="dot" id="class_3" r="4" cx="173.7213622291022" cy="332.99924216241993" fill="rgb(212, 248, 246)"></circle><circle class="dot" id="class_3" r="4" cx="277.3993808049536" cy="336.2277833520123" fill="rgb(212, 248, 246)"></circle><circle class="dot" id="class_3" r="4" cx="395.640866873065" cy="349.41058494684506" fill="rgb(212, 248, 246)"></circle><circle class="dot" id="class_3" r="4" cx="298.78224974200214" cy="338.124775845366" fill="rgb(212, 248, 246)"></circle><circle class="dot" id="class_3" r="4" cx="151.99174406604746" cy="337.51656653363165" fill="rgb(212, 248, 246)"></circle><circle class="dot" id="class_3" r="4" cx="267.11248710010324" cy="333.2529774114502" fill="rgb(212, 248, 246)"></circle><circle class="dot" id="class_3" r="4" cx="93.15995872033028" cy="344.77955942220626" fill="rgb(212, 248, 246)"></circle><circle class="dot" id="class_3" r="4" cx="147.13725490196077" cy="341.19327806855466" fill="rgb(212, 248, 246)"></circle><circle class="dot" id="class_3" r="4" cx="328.71826625386996" cy="336.7915940984497" fill="rgb(212, 248, 246)"></circle><circle class="dot" id="class_3" r="4" cx="306.6418988648091" cy="332.16730490785596" fill="rgb(212, 248, 246)"></circle><circle class="dot" id="class_3" r="4" cx="235.21155830753355" cy="329.26976267747733" fill="rgb(212, 248, 246)"></circle><circle class="dot" id="class_3" r="4" cx="148.52425180598556" cy="335.8732072236409" fill="rgb(212, 248, 246)"></circle><circle class="dot" id="class_3" r="4" cx="289.5356037151703" cy="337.37122502332625" fill="rgb(212, 248, 246)"></circle><circle class="dot" id="class_3" r="4" cx="397.2590299277606" cy="341.9233537871041" fill="rgb(212, 248, 246)"></circle><circle class="dot" id="class_3" r="4" cx="172.218782249742" cy="327.29856844396073" fill="rgb(212, 248, 246)"></circle><circle class="dot" id="class_3" r="4" cx="387.20330237358104" cy="334.0845064033448" fill="rgb(212, 248, 246)"></circle><circle class="dot" id="class_3" r="4" cx="306.1795665634675" cy="330.2122370497805" fill="rgb(212, 248, 246)"></circle><circle class="dot" id="class_3" r="4" cx="346.86480908152737" cy="334.1176777452333" fill="rgb(212, 248, 246)"></circle><circle class="dot" id="class_3" r="4" cx="461.2920536635708" cy="201.05405482797542" fill="rgb(212, 248, 246)"></circle><circle class="dot" id="class_3" r="4" cx="436.5572755417958" cy="308.0377563584784" fill="rgb(212, 248, 246)"></circle><circle class="dot" id="class_4" r="4" cx="299.938080495356" cy="347.2479155213812" fill="rgb(247, 220, 225)"></circle><circle class="dot" id="class_4" r="4" cx="389.86171310629516" cy="340.00768327662547" fill="rgb(247, 220, 225)"></circle><circle class="dot" id="class_4" r="4" cx="423.84313725490193" cy="304.3726803096332" fill="rgb(247, 220, 225)"></circle><circle class="dot" id="class_4" r="4" cx="334.4974200206399" cy="333.75687561115365" fill="rgb(247, 220, 225)"></circle><circle class="dot" id="class_4" r="4" cx="425.46130030959745" cy="330.2475517706834" fill="rgb(247, 220, 225)"></circle><circle class="dot" id="class_4" r="4" cx="440.83384932920535" cy="281.3326827592092" fill="rgb(247, 220, 225)"></circle><circle class="dot" id="class_4" r="4" cx="271.2734778121775" cy="352.2476022364856" fill="rgb(247, 220, 225)"></circle><circle class="dot" id="class_4" r="4" cx="383.5046439628484" cy="341.1320386681451" fill="rgb(247, 220, 225)"></circle><circle class="dot" id="class_4" r="4" cx="361.6594427244582" cy="328.7960759153093" fill="rgb(247, 220, 225)"></circle><circle class="dot" id="class_4" r="4" cx="443.14551083591334" cy="333.07589347859926" fill="rgb(247, 220, 225)"></circle><circle class="dot" id="class_4" r="4" cx="486.8359133126935" cy="271.0691633819006" fill="rgb(247, 220, 225)"></circle><circle class="dot" id="class_4" r="4" cx="417.83281733746134" cy="321.6284123600389" fill="rgb(247, 220, 225)"></circle><circle class="dot" id="class_4" r="4" cx="416.44582043343655" cy="303.2241353549518" fill="rgb(247, 220, 225)"></circle><circle class="dot" id="class_4" r="4" cx="441.29618163054704" cy="290.3803959070533" fill="rgb(247, 220, 225)"></circle><circle class="dot" id="class_4" r="4" cx="445.80392156862746" cy="300.72965044493543" fill="rgb(247, 220, 225)"></circle><circle class="dot" id="class_4" r="4" cx="424.88338493292053" cy="331.855800491106" fill="rgb(247, 220, 225)"></circle><circle class="dot" id="class_4" r="4" cx="391.36429308565533" cy="314.6497744206994" fill="rgb(247, 220, 225)"></circle><circle class="dot" id="class_4" r="4" cx="494.6955624355006" cy="283.7840959576042" fill="rgb(247, 220, 225)"></circle><circle class="dot" id="class_4" r="4" cx="432.28070175438603" cy="312.4758777718271" fill="rgb(247, 220, 225)"></circle><circle class="dot" id="class_4" r="4" cx="434.13003095975233" cy="317.3557393934634" fill="rgb(247, 220, 225)"></circle><circle class="dot" id="class_4" r="4" cx="299.938080495356" cy="336.2567700015395" fill="rgb(247, 220, 225)"></circle><circle class="dot" id="class_4" r="4" cx="408.58617131062954" cy="317.8776011506203" fill="rgb(247, 220, 225)"></circle><circle class="dot" id="class_4" r="4" cx="428.1197110423117" cy="214.331777493443" fill="rgb(247, 220, 225)"></circle><circle class="dot" id="class_4" r="4" cx="287.5706914344686" cy="342.05685567999694" fill="rgb(247, 220, 225)"></circle><circle class="dot" id="class_4" r="4" cx="421.76264189886484" cy="347.314768533495" fill="rgb(247, 220, 225)"></circle><circle class="dot" id="class_4" r="4" cx="338.0804953560372" cy="334.796414433106" fill="rgb(247, 220, 225)"></circle><circle class="dot" id="class_4" r="4" cx="346.86480908152737" cy="333.9510045104519" fill="rgb(247, 220, 225)"></circle><circle class="dot" id="class_4" r="4" cx="499.78121775025807" cy="287.27923267031287" fill="rgb(247, 220, 225)"></circle><circle class="dot" id="class_4" r="4" cx="501.5149638802889" cy="276.2341964781108" fill="rgb(247, 220, 225)"></circle><circle class="dot" id="class_4" r="4" cx="356.45820433436535" cy="322.97455644670856" fill="rgb(247, 220, 225)"></circle><circle class="dot" id="class_4" r="4" cx="350.4478844169247" cy="332.6572201111325" fill="rgb(247, 220, 225)"></circle><circle class="dot" id="class_4" r="4" cx="365.8204334365325" cy="334.4307131469935" fill="rgb(247, 220, 225)"></circle><circle class="dot" id="class_4" r="4" cx="324.7884416924665" cy="323.7441315785221" fill="rgb(247, 220, 225)"></circle><circle class="dot" id="class_4" r="4" cx="377.72549019607845" cy="312.4895545712519" fill="rgb(247, 220, 225)"></circle><circle class="dot" id="class_4" r="4" cx="418.87306501547994" cy="316.819384311543" fill="rgb(247, 220, 225)"></circle><circle class="dot" id="class_4" r="4" cx="389.05263157894734" cy="329.40714306572943" fill="rgb(247, 220, 225)"></circle><circle class="dot" id="class_4" r="4" cx="496.19814241486074" cy="270.28376807164784" fill="rgb(247, 220, 225)"></circle><circle class="dot" id="class_4" r="4" cx="470.7698658410733" cy="221.34726113869564" fill="rgb(247, 220, 225)"></circle><circle class="dot" id="class_4" r="4" cx="278.5552115583076" cy="343.3834031585355" fill="rgb(247, 220, 225)"></circle><circle class="dot" id="class_4" r="4" cx="156.26831785345712" cy="342.5279908004812" fill="rgb(247, 220, 225)"></circle><circle class="dot" id="class_4" r="4" cx="257.63467492260065" cy="339.5200135180306" fill="rgb(247, 220, 225)"></circle><circle class="dot" id="class_4" r="4" cx="416.9081527347781" cy="326.1295082901421" fill="rgb(247, 220, 225)"></circle><circle class="dot" id="class_4" r="4" cx="467.99587203302383" cy="263.2055140409754" fill="rgb(247, 220, 225)"></circle><circle class="dot" id="class_4" r="4" cx="309.1847265221879" cy="347.1182921238476" fill="rgb(247, 220, 225)"></circle><circle class="dot" id="class_1" r="4" cx="0" cy="355.1583109379523" fill="rgb(152, 51, 225)"></circle><circle class="dot" id="class_1" r="4" cx="98.7079463364293" cy="356.0189286450414" fill="rgb(152, 51, 225)"></circle><circle class="dot" id="class_1" r="4" cx="90.50154798761609" cy="355.91175969432464" fill="rgb(152, 51, 225)"></circle><circle class="dot" id="class_1" r="4" cx="99.28586171310626" cy="356.9681393513897" fill="rgb(152, 51, 225)"></circle><circle class="dot" id="class_1" r="4" cx="108.8792569659443" cy="358.2231387971164" fill="rgb(152, 51, 225)"></circle><circle class="dot" id="class_1" r="4" cx="85.41589267285863" cy="357.53991121988037" fill="rgb(152, 51, 225)"></circle><circle class="dot" id="class_1" r="4" cx="201.34571723426217" cy="355.3452952405362" fill="rgb(152, 51, 225)"></circle><circle class="dot" id="class_1" r="4" cx="267.5748194014448" cy="352.3394613370999" fill="rgb(152, 51, 225)"></circle><circle class="dot" id="class_5" r="4" cx="471.69453044375643" cy="260.5046523515788" fill="rgb(47, 122, 25)"></circle><circle class="dot" id="class_5" r="4" cx="367.4385964912281" cy="0" fill="rgb(47, 122, 25)"></circle><circle class="dot" id="class_5" r="4" cx="119.97523219814245" cy="359.2949303699512" fill="rgb(47, 122, 25)"></circle><circle class="dot" id="class_5" r="4" cx="127.60371517027863" cy="358.86155954638616" fill="rgb(47, 122, 25)"></circle><circle class="dot" id="class_5" r="4" cx="199.95872033023736" cy="292.1361295167956" fill="rgb(47, 122, 25)"></circle><circle class="dot" id="class_5" r="4" cx="358.4231166150671" cy="333.80045765111174" fill="rgb(47, 122, 25)"></circle><circle class="dot" id="class_5" r="4" cx="95.81836945304438" cy="355.6989527779014" fill="rgb(47, 122, 25)"></circle><circle class="dot" id="class_5" r="4" cx="359.34778121775025" cy="335.8957637361251" fill="rgb(47, 122, 25)"></circle><circle class="dot" id="class_5" r="4" cx="229.2012383900929" cy="354.0082349982606" fill="rgb(47, 122, 25)"></circle><circle class="dot" id="class_5" r="4" cx="200.0743034055728" cy="355.30446897359644" fill="rgb(47, 122, 25)"></circle><circle class="dot" id="class_5" r="4" cx="286.29927760577914" cy="340.73918791451774" fill="rgb(47, 122, 25)"></circle><circle class="dot" id="class_5" r="4" cx="217.29618163054693" cy="343.0832280308613" fill="rgb(47, 122, 25)"></circle><circle class="dot" id="class_5" r="4" cx="148.29308565531477" cy="355.3235552533908" fill="rgb(47, 122, 25)"></circle><circle class="dot" id="class_5" r="4" cx="60.33436532507739" cy="358.3278581718168" fill="rgb(47, 122, 25)"></circle><circle class="dot" id="class_5" r="4" cx="274.16305469556244" cy="267.209958433757" fill="rgb(47, 122, 25)"></circle><circle class="dot" id="class_5" r="4" cx="474.81527347781224" cy="246.02908701410013" fill="rgb(47, 122, 25)"></circle><circle class="dot" id="class_5" r="4" cx="63.10835913312695" cy="352.9914568201271" fill="rgb(47, 122, 25)"></circle><circle class="dot" id="class_5" r="4" cx="209.78328173374612" cy="351.1625421268954" fill="rgb(47, 122, 25)"></circle><circle class="dot" id="class_5" r="4" cx="358.76986584107334" cy="326.8277395204785" fill="rgb(47, 122, 25)"></circle><circle class="dot" id="class_5" r="4" cx="305.0237358101136" cy="349.57858503530196" fill="rgb(47, 122, 25)"></circle><circle class="dot" id="class_5" r="4" cx="263.41382868937046" cy="355.6167899156853" fill="rgb(47, 122, 25)"></circle><circle class="dot" id="class_5" r="4" cx="8.784313725490174" cy="355.6989527779014" fill="rgb(47, 122, 25)"></circle><circle class="dot" id="class_5" r="4" cx="129.56862745098042" cy="357.02999114580336" fill="rgb(47, 122, 25)"></circle></g><g transform="translate(0,360)" fill="none" font-size="10" font-family="sans-serif" text-anchor="middle"><path class="domain" stroke="#000" d="M0.5,6V0.5H560.5V6"></path><g class="tick" opacity="1" transform="translate(21.18937048503611,0)"><line stroke="#000" y2="6"></line><text fill="#000" y="9" dy="0.71em">30</text></g><g class="tick" opacity="1" transform="translate(78.98090815273478,0)"><line stroke="#000" y2="6"></line><text fill="#000" y="9" dy="0.71em">35</text></g><g class="tick" opacity="1" transform="translate(136.77244582043343,0)"><line stroke="#000" y2="6"></line><text fill="#000" y="9" dy="0.71em">40</text></g><g class="tick" opacity="1" transform="translate(194.5639834881321,0)"><line stroke="#000" y2="6"></line><text fill="#000" y="9" dy="0.71em">45</text></g><g class="tick" opacity="1" transform="translate(252.35552115583076,0)"><line stroke="#000" y2="6"></line><text fill="#000" y="9" dy="0.71em">50</text></g><g class="tick" opacity="1" transform="translate(310.14705882352945,0)"><line stroke="#000" y2="6"></line><text fill="#000" y="9" dy="0.71em">55</text></g><g class="tick" opacity="1" transform="translate(367.9385964912281,0)"><line stroke="#000" y2="6"></line><text fill="#000" y="9" dy="0.71em">60</text></g><g class="tick" opacity="1" transform="translate(425.7301341589268,0)"><line stroke="#000" y2="6"></line><text fill="#000" y="9" dy="0.71em">65</text></g><g class="tick" opacity="1" transform="translate(483.52167182662544,0)"><line stroke="#000" y2="6"></line><text fill="#000" y="9" dy="0.71em">70</text></g><g class="tick" opacity="1" transform="translate(541.313209494324,0)"><line stroke="#000" y2="6"></line><text fill="#000" y="9" dy="0.71em">75</text></g></g><g fill="none" font-size="10" font-family="sans-serif" text-anchor="end"><path class="domain" stroke="#000" d="M-6,360.5H0.5V0.5H-6"></path><g class="tick" opacity="1" transform="translate(0,312.3551143830088)"><line stroke="#000" x2="-6"></line><text fill="#000" x="-9" dy="0.32em">5,000</text></g><g class="tick" opacity="1" transform="translate(0,261.32228070836976)"><line stroke="#000" x2="-6"></line><text fill="#000" x="-9" dy="0.32em">10,000</text></g><g class="tick" opacity="1" transform="translate(0,210.28944703373074)"><line stroke="#000" x2="-6"></line><text fill="#000" x="-9" dy="0.32em">15,000</text></g><g class="tick" opacity="1" transform="translate(0,159.25661335909172)"><line stroke="#000" x2="-6"></line><text fill="#000" x="-9" dy="0.32em">20,000</text></g><g class="tick" opacity="1" transform="translate(0,108.2237796844527)"><line stroke="#000" x2="-6"></line><text fill="#000" x="-9" dy="0.32em">25,000</text></g><g class="tick" opacity="1" transform="translate(0,57.19094600981367)"><line stroke="#000" x2="-6"></line><text fill="#000" x="-9" dy="0.32em">30,000</text></g><g class="tick" opacity="1" transform="translate(0,6.158112335174565)"><line stroke="#000" x2="-6"></line><text fill="#000" x="-9" dy="0.32em">35,000</text></g></g></g><text x="0" y="20">year-1950</text></svg>