<?xml version="1.0" standalone="no"?>
<svg width="600" height="400" style="background-color: rgb(255, 255, 255);" xmlns="http://www.w3.org/2000/svg"><g transform="translate(20,20)"><g><circle class="dot" id="class_0" r="4" cx="115.86206896551721" cy="331.4577415624039" fill="rgb(133, 255, 156)"></circle><circle class="dot" id="class_0" r="4" cx="238.7349000658906" cy="351.67064461468476" fill="rgb(133, 255, 156)"></circle><circle class="dot" id="class_0" r="4" cx="360.74676037777294" cy="319.84131086348174" fill="rgb(133, 255, 156)"></circle><circle class="dot" id="class_0" r="4" cx="169.98023281352957" cy="355.453959685709" fill="rgb(133, 255, 156)"></circle><circle class="dot" id="class_0" r="4" cx="192.24247748737093" cy="358.1368117867321" fill="rgb(133, 255, 156)"></circle><circle class="dot" id="class_0" r="4" cx="245.37667471996485" cy="342.8829384035896" fill="rgb(133, 255, 156)"></circle><circle class="dot" id="class_0" r="4" cx="373.16933889743024" cy="352.4088472994196" fill="rgb(133, 255, 156)"></circle><circle class="dot" id="class_0" r="4" cx="210.69185152646605" cy="355.3490283944799" fill="rgb(133, 255, 156)"></circle><circle class="dot" id="class_0" r="4" cx="256.20030748956736" cy="351.10178440496253" fill="rgb(133, 255, 156)"></circle><circle class="dot" id="class_0" r="4" cx="188.9215901603339" cy="356.4652784193299" fill="rgb(133, 255, 156)"></circle><circle class="dot" id="class_0" r="4" cx="350.16911926202505" cy="322.0518142834256" fill="rgb(133, 255, 156)"></circle><circle class="dot" id="class_0" r="4" cx="301.7087634526685" cy="335.3520922525321" fill="rgb(133, 255, 156)"></circle><circle class="dot" id="class_0" r="4" cx="143.65912585108725" cy="353.6047693277404" fill="rgb(133, 255, 156)"></circle><circle class="dot" id="class_0" r="4" cx="158.91060839007244" cy="358.1938556782528" fill="rgb(133, 255, 156)"></circle><circle class="dot" id="class_0" r="4" cx="157.06567098616296" cy="357.6260479388538" fill="rgb(133, 255, 156)"></circle><circle class="dot" id="class_0" r="4" cx="286.5802767406106" cy="198.61409538421597" fill="rgb(133, 255, 156)"></circle><circle class="dot" id="class_0" r="4" cx="269.3608609707885" cy="353.5797205340468" fill="rgb(133, 255, 156)"></circle><circle class="dot" id="class_0" r="4" cx="152.63782121678014" cy="354.6232448595595" fill="rgb(133, 255, 156)"></circle><circle class="dot" id="class_0" r="4" cx="111.18822754227985" cy="356.4470706827375" fill="rgb(133, 255, 156)"></circle><circle class="dot" id="class_0" r="4" cx="326.67691631891057" cy="349.67158248268396" fill="rgb(133, 255, 156)"></circle><circle class="dot" id="class_0" r="4" cx="278.7085438172633" cy="355.3934426421215" fill="rgb(133, 255, 156)"></circle><circle class="dot" id="class_0" r="4" cx="202.45113112233696" cy="357.4000825604498" fill="rgb(133, 255, 156)"></circle><circle class="dot" id="class_0" r="4" cx="209.09290577641121" cy="347.6571542839635" fill="rgb(133, 255, 156)"></circle><circle class="dot" id="class_0" r="4" cx="168.25829123654736" cy="356.45054383480425" fill="rgb(133, 255, 156)"></circle><circle class="dot" id="class_0" r="4" cx="109.46628596529763" cy="356.4422293192505" fill="rgb(133, 255, 156)"></circle><circle class="dot" id="class_0" r="4" cx="265.056007028333" cy="347.76892663229376" fill="rgb(133, 255, 156)"></circle><circle class="dot" id="class_0" r="4" cx="426.672523610806" cy="328.0478429620725" fill="rgb(133, 255, 156)"></circle><circle class="dot" id="class_0" r="4" cx="143.53613002415986" cy="358.71019761884435" fill="rgb(133, 255, 156)"></circle><circle class="dot" id="class_0" r="4" cx="329.0138370305294" cy="319.96108198626877" fill="rgb(133, 255, 156)"></circle><circle class="dot" id="class_0" r="4" cx="101.96354052273229" cy="353.7412747286673" fill="rgb(133, 255, 156)"></circle><circle class="dot" id="class_0" r="4" cx="167.64331210191082" cy="344.41796637006496" fill="rgb(133, 255, 156)"></circle><circle class="dot" id="class_0" r="4" cx="459.7584010542501" cy="312.3796120126624" fill="rgb(133, 255, 156)"></circle><circle class="dot" id="class_0" r="4" cx="181.41884471776854" cy="355.2018930432881" fill="rgb(133, 255, 156)"></circle><circle class="dot" id="class_0" r="4" cx="349.06215681967933" cy="341.0399576205283" fill="rgb(133, 255, 156)"></circle><circle class="dot" id="class_0" r="4" cx="199.99121458379093" cy="348.9354847385956" fill="rgb(133, 255, 156)"></circle><circle class="dot" id="class_0" r="4" cx="130.7445640237206" cy="348.9504298171859" fill="rgb(133, 255, 156)"></circle><circle class="dot" id="class_0" r="4" cx="144.7660882934329" cy="352.67122815100845" fill="rgb(133, 255, 156)"></circle><circle class="dot" id="class_0" r="4" cx="315.60729189545356" cy="273.5437728254501" fill="rgb(133, 255, 156)"></circle><circle class="dot" id="class_0" r="4" cx="225.8203382385241" cy="345.2846756812699" fill="rgb(133, 255, 156)"></circle><circle class="dot" id="class_0" r="4" cx="285.3503184713376" cy="325.2479561611028" fill="rgb(133, 255, 156)"></circle><circle class="dot" id="class_0" r="4" cx="234.6760377772897" cy="354.0798544316602" fill="rgb(133, 255, 156)"></circle><circle class="dot" id="class_0" r="4" cx="291.37711399077534" cy="347.08945179159684" fill="rgb(133, 255, 156)"></circle><circle class="dot" id="class_0" r="4" cx="232.58510871952558" cy="357.0957081429629" fill="rgb(133, 255, 156)"></circle><circle class="dot" id="class_0" r="4" cx="255.8313200087854" cy="348.43566658207925" fill="rgb(133, 255, 156)"></circle><circle class="dot" id="class_0" r="4" cx="342.2973863386778" cy="356.1613249899723" fill="rgb(133, 255, 156)"></circle><circle class="dot" id="class_5" r="4" cx="534.6628596529761" cy="158.528447688132" fill="rgb(255, 228, 48)"></circle><circle class="dot" id="class_5" r="4" cx="109.34329013837036" cy="357.43428784595574" fill="rgb(255, 228, 48)"></circle><circle class="dot" id="class_5" r="4" cx="430.36239841862516" cy="353.98565833772835" fill="rgb(255, 228, 48)"></circle><circle class="dot" id="class_5" r="4" cx="400.47441247529105" cy="328.30233028623684" fill="rgb(255, 228, 48)"></circle><circle class="dot" id="class_5" r="4" cx="407.9771579178564" cy="179.77203492798182" fill="rgb(255, 228, 48)"></circle><circle class="dot" id="class_5" r="4" cx="534.5398638260489" cy="221.79717493577007" fill="rgb(255, 228, 48)"></circle><circle class="dot" id="class_5" r="4" cx="286.7032725675379" cy="347.5147550492264" fill="rgb(255, 228, 48)"></circle><circle class="dot" id="class_5" r="4" cx="554.2191961344168" cy="169.23512303962787" fill="rgb(255, 228, 48)"></circle><circle class="dot" id="class_5" r="4" cx="456.8065012079947" cy="328.3187488232797" fill="rgb(255, 228, 48)"></circle><circle class="dot" id="class_5" r="4" cx="425.6885569953876" cy="318.23608312644495" fill="rgb(255, 228, 48)"></circle><circle class="dot" id="class_5" r="4" cx="500.2240281133319" cy="203.67005757012666" fill="rgb(255, 228, 48)"></circle><circle class="dot" id="class_5" r="4" cx="437.3731605534812" cy="315.9250687906297" fill="rgb(255, 228, 48)"></circle><circle class="dot" id="class_5" r="4" cx="418.6777948605316" cy="313.84528218483484" fill="rgb(255, 228, 48)"></circle><circle class="dot" id="class_5" r="4" cx="311.05644629914343" cy="344.874107008166" fill="rgb(255, 228, 48)"></circle><circle class="dot" id="class_5" r="4" cx="324.09400395343727" cy="353.9766070929483" fill="rgb(255, 228, 48)"></circle><circle class="dot" id="class_5" r="4" cx="444.38392268833746" cy="80.01931867748914" fill="rgb(255, 228, 48)"></circle><circle class="dot" id="class_5" r="4" cx="514.3685482099716" cy="187.86553171385438" fill="rgb(255, 228, 48)"></circle><circle class="dot" id="class_5" r="4" cx="245.9916538546014" cy="344.7719121397774" fill="rgb(255, 228, 48)"></circle><circle class="dot" id="class_5" r="4" cx="368.98748078190204" cy="336.98152680700383" fill="rgb(255, 228, 48)"></circle><circle class="dot" id="class_5" r="4" cx="354.1049857236987" cy="325.0413562366468" fill="rgb(255, 228, 48)"></circle><circle class="dot" id="class_5" r="4" cx="493.336261805403" cy="215.38152633923923" fill="rgb(255, 228, 48)"></circle><circle class="dot" id="class_5" r="4" cx="339.9604656270591" cy="349.62969416381816" fill="rgb(255, 228, 48)"></circle><circle class="dot" id="class_5" r="4" cx="497.02613661322215" cy="283.07304962631457" fill="rgb(255, 228, 48)"></circle><circle class="dot" id="class_5" r="4" cx="428.02547770700653" cy="340.37900625752076" fill="rgb(255, 228, 48)"></circle><circle class="dot" id="class_5" r="4" cx="447.33582253459264" cy="337.7275177721308" fill="rgb(255, 228, 48)"></circle><circle class="dot" id="class_5" r="4" cx="323.72501647265545" cy="356.868479800171" fill="rgb(255, 228, 48)"></circle><circle class="dot" id="class_5" r="4" cx="337.62354491544033" cy="336.61421466418597" fill="rgb(255, 228, 48)"></circle><circle class="dot" id="class_1" r="4" cx="99.87261146496816" cy="355.28903758605406" fill="rgb(255, 160, 196)"></circle><circle class="dot" id="class_1" r="4" cx="203.43509773775537" cy="356.6196758157522" fill="rgb(255, 160, 196)"></circle><circle class="dot" id="class_1" r="4" cx="186.46167362178784" cy="354.61398312071486" fill="rgb(255, 160, 196)"></circle><circle class="dot" id="class_1" r="4" cx="294.94399297166706" cy="354.93572329853555" fill="rgb(255, 160, 196)"></circle><circle class="dot" id="class_1" r="4" cx="304.78365912585105" cy="353.6759163215928" fill="rgb(255, 160, 196)"></circle><circle class="dot" id="class_1" r="4" cx="208.84691412255654" cy="356.7428148435737" fill="rgb(255, 160, 196)"></circle><circle class="dot" id="class_1" r="4" cx="326.92290797276524" cy="349.7786187145595" fill="rgb(255, 160, 196)"></circle><circle class="dot" id="class_1" r="4" cx="451.0256973424116" cy="347.76608496242096" fill="rgb(255, 160, 196)"></circle><circle class="dot" id="class_4" r="4" cx="473.90292115088954" cy="326.0163647441152" fill="rgb(255, 175, 120)"></circle><circle class="dot" id="class_4" r="4" cx="511.293652536789" cy="139.80331668481202" fill="rgb(255, 175, 120)"></circle><circle class="dot" id="class_4" r="4" cx="518.5504063254998" cy="143.11954542637326" fill="rgb(255, 175, 120)"></circle><circle class="dot" id="class_4" r="4" cx="483.6195914781464" cy="320.9256710375369" fill="rgb(255, 175, 120)"></circle><circle class="dot" id="class_4" r="4" cx="491.6143202284208" cy="281.6958922083283" fill="rgb(255, 175, 120)"></circle><circle class="dot" id="class_4" r="4" cx="484.84954974741925" cy="226.388050485832" fill="rgb(255, 175, 120)"></circle><circle class="dot" id="class_4" r="4" cx="532.6949264221392" cy="249.04973623924286" fill="rgb(255, 175, 120)"></circle><circle class="dot" id="class_4" r="4" cx="529.2510432681748" cy="147.75609818846468" fill="rgb(255, 175, 120)"></circle><circle class="dot" id="class_4" r="4" cx="523.1012519218098" cy="176.51285007794124" fill="rgb(255, 175, 120)"></circle><circle class="dot" id="class_4" r="4" cx="531.5879639797936" cy="149.80431068456173" fill="rgb(255, 175, 120)"></circle><circle class="dot" id="class_4" r="4" cx="474.27190863167147" cy="300.5182714695175" fill="rgb(255, 175, 120)"></circle><circle class="dot" id="class_4" r="4" cx="517.1974522292995" cy="130.71460396126437" fill="rgb(255, 175, 120)"></circle><circle class="dot" id="class_4" r="4" cx="532.9409180759939" cy="207.24056314178762" fill="rgb(255, 175, 120)"></circle><circle class="dot" id="class_4" r="4" cx="467.13815066988803" cy="237.32690079063912" fill="rgb(255, 175, 120)"></circle><circle class="dot" id="class_4" r="4" cx="560" cy="127.69832926183236" fill="rgb(255, 175, 120)"></circle><circle class="dot" id="class_4" r="4" cx="510.06369426751587" cy="235.23806294006414" fill="rgb(255, 175, 120)"></circle><circle class="dot" id="class_4" r="4" cx="528.7590599604657" cy="193.29859401658928" fill="rgb(255, 175, 120)"></circle><circle class="dot" id="class_4" r="4" cx="468.12211728530644" cy="276.69202730341897" fill="rgb(255, 175, 120)"></circle><circle class="dot" id="class_4" r="4" cx="509.69470678673395" cy="79.42372572155608" fill="rgb(255, 175, 120)"></circle><circle class="dot" id="class_4" r="4" cx="473.656929497035" cy="279.8449126508102" fill="rgb(255, 175, 120)"></circle><circle class="dot" id="class_4" r="4" cx="513.2615857676258" cy="267.9993591625143" fill="rgb(255, 175, 120)"></circle><circle class="dot" id="class_4" r="4" cx="524.0852185372282" cy="247.16844553641488" fill="rgb(255, 175, 120)"></circle><circle class="dot" id="class_4" r="4" cx="548.930375576543" cy="149.40710838456332" fill="rgb(255, 175, 120)"></circle><circle class="dot" id="class_4" r="4" cx="547.5774214803428" cy="101.1114554378218" fill="rgb(255, 175, 120)"></circle><circle class="dot" id="class_4" r="4" cx="481.52866242038226" cy="267.2721021691413" fill="rgb(255, 175, 120)"></circle><circle class="dot" id="class_4" r="4" cx="499.6090489786954" cy="243.6294088274194" fill="rgb(255, 175, 120)"></circle><circle class="dot" id="class_4" r="4" cx="473.16494618932575" cy="261.14925081654155" fill="rgb(255, 175, 120)"></circle><circle class="dot" id="class_4" r="4" cx="481.52866242038226" cy="206.02285497777532" fill="rgb(255, 175, 120)"></circle><circle class="dot" id="class_4" r="4" cx="483.49659565121897" cy="245.32020240173728" fill="rgb(255, 175, 120)"></circle><circle class="dot" id="class_4" r="4" cx="490.6303536130024" cy="178.10786885284242" fill="rgb(255, 175, 120)"></circle><circle class="dot" id="class_4" r="4" cx="546.9624423457061" cy="218.67702141543225" fill="rgb(255, 175, 120)"></circle><circle class="dot" id="class_4" r="4" cx="549.4223588842522" cy="140.9158830635306" fill="rgb(255, 175, 120)"></circle><circle class="dot" id="class_4" r="4" cx="547.4544256534155" cy="61.41890540747556" fill="rgb(255, 175, 120)"></circle><circle class="dot" id="class_4" r="4" cx="358.778827146936" cy="317.1208855719182" fill="rgb(255, 175, 120)"></circle><circle class="dot" id="class_4" r="4" cx="523.8392268833736" cy="172.27076319300784" fill="rgb(255, 175, 120)"></circle><circle class="dot" id="class_2" r="4" cx="350.538106742807" cy="304.77288275129774" fill="rgb(116, 172, 207)"></circle><circle class="dot" id="class_2" r="4" cx="445.490885130683" cy="162.82852568787703" fill="rgb(116, 172, 207)"></circle><circle class="dot" id="class_2" r="4" cx="202.32813529540962" cy="333.7827537535185" fill="rgb(116, 172, 207)"></circle><circle class="dot" id="class_2" r="4" cx="367.38853503184714" cy="169.47213935642606" fill="rgb(116, 172, 207)"></circle><circle class="dot" id="class_2" r="4" cx="524.45420601801" cy="207.8502592000524" fill="rgb(116, 172, 207)"></circle><circle class="dot" id="class_2" r="4" cx="387.4368548209972" cy="321.5585214429134" fill="rgb(116, 172, 207)"></circle><circle class="dot" id="class_2" r="4" cx="435.2822314957171" cy="274.01380607181824" fill="rgb(116, 172, 207)"></circle><circle class="dot" id="class_2" r="4" cx="352.99802328135297" cy="114.79072797033436" fill="rgb(116, 172, 207)"></circle><circle class="dot" id="class_2" r="4" cx="326.5539204919833" cy="336.16281014253957" fill="rgb(116, 172, 207)"></circle><circle class="dot" id="class_2" r="4" cx="355.9499231276082" cy="248.15808338137663" fill="rgb(116, 172, 207)"></circle><circle class="dot" id="class_2" r="4" cx="367.6345266857018" cy="0" fill="rgb(116, 172, 207)"></circle><circle class="dot" id="class_2" r="4" cx="380.30309685921367" cy="326.52197148740953" fill="rgb(116, 172, 207)"></circle><circle class="dot" id="class_2" r="4" cx="388.42082143641557" cy="321.0582822982677" fill="rgb(116, 172, 207)"></circle><circle class="dot" id="class_2" r="4" cx="191.25851087195255" cy="343.4139096816745" fill="rgb(116, 172, 207)"></circle><circle class="dot" id="class_3" r="4" cx="472.3039754008347" cy="257.24016554188773" fill="rgb(149, 54, 226)"></circle><circle class="dot" id="class_3" r="4" cx="506.37381945969696" cy="264.78574627747093" fill="rgb(149, 54, 226)"></circle><circle class="dot" id="class_3" r="4" cx="503.79090709422366" cy="217.95776319651608" fill="rgb(149, 54, 226)"></circle><circle class="dot" id="class_3" r="4" cx="486.5714913244015" cy="322.839272579289" fill="rgb(149, 54, 226)"></circle><circle class="dot" id="class_3" r="4" cx="256.20030748956736" cy="328.12856743586656" fill="rgb(149, 54, 226)"></circle><circle class="dot" id="class_3" r="4" cx="385.345925763233" cy="283.5868656381303" fill="rgb(149, 54, 226)"></circle><circle class="dot" id="class_3" r="4" cx="541.3046343070504" cy="116.76274161502738" fill="rgb(149, 54, 226)"></circle><circle class="dot" id="class_3" r="4" cx="466.64616736217874" cy="303.3128959188709" fill="rgb(149, 54, 226)"></circle><circle class="dot" id="class_3" r="4" cx="422.49066549527794" cy="317.72479304340504" fill="rgb(149, 54, 226)"></circle><circle class="dot" id="class_3" r="4" cx="509.5717109598068" cy="299.58683523343205" fill="rgb(149, 54, 226)"></circle><circle class="dot" id="class_3" r="4" cx="525.0691851526466" cy="293.35557943753645" fill="rgb(149, 54, 226)"></circle><circle class="dot" id="class_3" r="4" cx="391.0037338018889" cy="287.62214210454306" fill="rgb(149, 54, 226)"></circle><circle class="dot" id="class_3" r="4" cx="310.072479683725" cy="315.09161754163983" fill="rgb(149, 54, 226)"></circle><circle class="dot" id="class_3" r="4" cx="418.5547990336042" cy="323.1325960583817" fill="rgb(149, 54, 226)"></circle><circle class="dot" id="class_3" r="4" cx="320.6501207994729" cy="308.71017423061494" fill="rgb(149, 54, 226)"></circle><circle class="dot" id="class_3" r="4" cx="364.9286184933011" cy="335.8882206352009" fill="rgb(149, 54, 226)"></circle><circle class="dot" id="class_3" r="4" cx="239.84186250823637" cy="340.52845704342377" fill="rgb(149, 54, 226)"></circle><circle class="dot" id="class_3" r="4" cx="348.20118603118823" cy="328.6998483273323" fill="rgb(149, 54, 226)"></circle><circle class="dot" id="class_3" r="4" cx="482.7586206896551" cy="300.5104831891254" fill="rgb(149, 54, 226)"></circle><circle class="dot" id="class_3" r="4" cx="435.7742148034264" cy="265.7329695684053" fill="rgb(149, 54, 226)"></circle><circle class="dot" id="class_3" r="4" cx="515.1065231715354" cy="147.9812215906101" fill="rgb(149, 54, 226)"></circle><circle class="dot" id="class_3" r="4" cx="336.6395783000219" cy="326.6806840121572" fill="rgb(149, 54, 226)"></circle><circle class="dot" id="class_3" r="4" cx="478.0847792664178" cy="293.8985488773065" fill="rgb(149, 54, 226)"></circle><circle class="dot" id="class_3" r="4" cx="438.35712716889964" cy="318.74032165831903" fill="rgb(149, 54, 226)"></circle><circle class="dot" id="class_3" r="4" cx="355.8269273006809" cy="296.02590714171276" fill="rgb(149, 54, 226)"></circle><circle class="dot" id="class_3" r="4" cx="522.7322644410278" cy="250.4550998618925" fill="rgb(149, 54, 226)"></circle><circle class="dot" id="class_3" r="4" cx="426.7955194377334" cy="300.1868485647228" fill="rgb(149, 54, 226)"></circle><circle class="dot" id="class_3" r="4" cx="445.61388095761043" cy="263.84978441899545" fill="rgb(149, 54, 226)"></circle><circle class="dot" id="class_3" r="4" cx="526.4221392488471" cy="70.83072652026408" fill="rgb(149, 54, 226)"></circle><circle class="dot" id="class_3" r="4" cx="481.52866242038226" cy="283.9764901518013" fill="rgb(149, 54, 226)"></circle></g><g transform="translate(0,360)" fill="none" font-size="10" font-family="sans-serif" text-anchor="middle"><path class="domain" stroke="#000" d="M0.5,6V0.5H560.5V6"></path><g class="tick" opacity="1" transform="translate(48.09938502086538,0)"><line stroke="#000" y2="6"></line><text fill="#000" y="9" dy="0.71em">35</text></g><g class="tick" opacity="1" transform="translate(109.59729848451572,0)"><line stroke="#000" y2="6"></line><text fill="#000" y="9" dy="0.71em">40</text></g><g class="tick" opacity="1" transform="translate(171.09521194816605,0)"><line stroke="#000" y2="6"></line><text fill="#000" y="9" dy="0.71em">45</text></g><g class="tick" opacity="1" transform="translate(232.5931254118164,0)"><line stroke="#000" y2="6"></line><text fill="#000" y="9" dy="0.71em">50</text></g><g class="tick" opacity="1" transform="translate(294.0910388754668,0)"><line stroke="#000" y2="6"></line><text fill="#000" y="9" dy="0.71em">55</text></g><g class="tick" opacity="1" transform="translate(355.5889523391171,0)"><line stroke="#000" y2="6"></line><text fill="#000" y="9" dy="0.71em">60</text></g><g class="tick" opacity="1" transform="translate(417.0868658027675,0)"><line stroke="#000" y2="6"></line><text fill="#000" y="9" dy="0.71em">65</text></g><g class="tick" opacity="1" transform="translate(478.5847792664178,0)"><line stroke="#000" y2="6"></line><text fill="#000" y="9" dy="0.71em">70</text></g><g class="tick" opacity="1" transform="translate(540.0826927300682,0)"><line stroke="#000" y2="6"></line><text fill="#000" y="9" dy="0.71em">75</text></g></g><g fill="none" font-size="10" font-family="sans-serif" text-anchor="end"><path class="domain" stroke="#000" d="M-6,360.5H0.5V0.5H-6"></path><g class="tick" opacity="1" transform="translate(0,311.6950566638328)"><line stroke="#000" x2="-6"></line><text fill="#000" x="-9" dy="0.32em">5,000</text></g><g class="tick" opacity="1" transform="translate(0,259.07154050081215)"><line stroke="#000" x2="-6"></line><text fill="#000" x="-9" dy="0.32em">10,000</text></g><g class="tick" opacity="1" transform="translate(0,206.4480243377915)"><line stroke="#000" x2="-6"></line><text fill="#000" x="-9" dy="0.32em">15,000</text></g><g class="tick" opacity="1" transform="translate(0,153.82450817477087)"><line stroke="#000" x2="-6"></line><text fill="#000" x="-9" dy="0.32em">20,000</text></g><g class="tick" opacity="1" transform="translate(0,101.2009920117502)"><line stroke="#000" x2="-6"></line><text fill="#000" x="-9" dy="0.32em">25,000</text></g><g class="tick" opacity="1" transform="translate(0,48.57747584872959)"><line stroke="#000" x2="-6"></line><text fill="#000" x="-9" dy="0.32em">30,000</text></g></g></g><text x="0" y="20">year-1980</text></svg>