<svg width="600" height="400" style="background-color: rgb(255, 255, 255);"><g transform="translate(50,20)"><g transform="translate(0,330)" fill="none" font-size="10" font-family="sans-serif" text-anchor="middle"><path class="domain" stroke="#000" d="M0.5,6V0.5H560.5V6"></path><g class="tick" opacity="1" transform="translate(46.666666666666664,0)"><line stroke="#000" y2="6"></line><text fill="#000" y="9" dy="0.71em">Sub-Saharan Africa</text></g><g class="tick" opacity="1" transform="translate(140,0)"><line stroke="#000" y2="6"></line><text fill="#000" y="9" dy="0.71em">South Asia</text></g><g class="tick" opacity="1" transform="translate(233.33333333333331,0)"><line stroke="#000" y2="6"></line><text fill="#000" y="9" dy="0.71em">Middle East &amp; North Africa</text></g><g class="tick" opacity="1" transform="translate(326.6666666666667,0)"><line stroke="#000" y2="6"></line><text fill="#000" y="9" dy="0.71em">America</text></g><g class="tick" opacity="1" transform="translate(420,0)"><line stroke="#000" y2="6"></line><text fill="#000" y="9" dy="0.71em">Europe &amp; Central Asia</text></g><g class="tick" opacity="1" transform="translate(513.3333333333333,0)"><line stroke="#000" y2="6"></line><text fill="#000" y="9" dy="0.71em">East Asia &amp; Pacific</text></g></g><g fill="none" font-size="10" font-family="sans-serif" text-anchor="end"><path class="domain" stroke="#000" d="M-6,330.5H0.5V0.5H-6"></path><g class="tick" opacity="1" transform="translate(0,330.5)"><line stroke="#000" x2="-6"></line><text fill="#000" x="-9" dy="0.32em">0.0</text></g><g class="tick" opacity="1" transform="translate(0,297.5)"><line stroke="#000" x2="-6"></line><text fill="#000" x="-9" dy="0.32em">0.1</text></g><g class="tick" opacity="1" transform="translate(0,264.5)"><line stroke="#000" x2="-6"></line><text fill="#000" x="-9" dy="0.32em">0.2</text></g><g class="tick" opacity="1" transform="translate(0,231.5)"><line stroke="#000" x2="-6"></line><text fill="#000" x="-9" dy="0.32em">0.3</text></g><g class="tick" opacity="1" transform="translate(0,198.5)"><line stroke="#000" x2="-6"></line><text fill="#000" x="-9" dy="0.32em">0.4</text></g><g class="tick" opacity="1" transform="translate(0,165.5)"><line stroke="#000" x2="-6"></line><text fill="#000" x="-9" dy="0.32em">0.5</text></g><g class="tick" opacity="1" transform="translate(0,132.5)"><line stroke="#000" x2="-6"></line><text fill="#000" x="-9" dy="0.32em">0.6</text></g><g class="tick" opacity="1" transform="translate(0,99.50000000000003)"><line stroke="#000" x2="-6"></line><text fill="#000" x="-9" dy="0.32em">0.7</text></g><g class="tick" opacity="1" transform="translate(0,66.5)"><line stroke="#000" x2="-6"></line><text fill="#000" x="-9" dy="0.32em">0.8</text></g><g class="tick" opacity="1" transform="translate(0,33.5)"><line stroke="#000" x2="-6"></line><text fill="#000" x="-9" dy="0.32em">0.9</text></g><g class="tick" opacity="1" transform="translate(0,0.5)"><line stroke="#000" x2="-6"></line><text fill="#000" x="-9" dy="0.32em">1.0</text></g></g><rect x="36.666666666666664" y="360" width="20" height="20" fill="rgb(241, 206, 99)"></rect><line x1="46.666666666666664" y1="254.26833665503875" x2="140" y2="3.5808881205379635" style="stroke: rgb(0, 0, 0);"></line><circle id="circle_0" r="10" cx="46.666666666666664" cy="254.26833665503875" fill="rgb(241, 206, 99)" style="stroke: rgb(0, 0, 0);"></circle><rect x="130" y="360" width="20" height="20" fill="rgb(78, 121, 167)"></rect><line x1="140" y1="3.5808881205379635" x2="233.33333333333331" y2="147.8671141599079" style="stroke: rgb(0, 0, 0);"></line><circle id="circle_1" r="10" cx="140" cy="3.5808881205379635" fill="rgb(78, 121, 167)" style="stroke: rgb(0, 0, 0);"></circle><rect x="223.33333333333331" y="360" width="20" height="20" fill="rgb(186, 176, 172)"></rect><line x1="233.33333333333331" y1="147.8671141599079" x2="326.6666666666667" y2="121.13213024306182" style="stroke: rgb(0, 0, 0);"></line><circle id="circle_2" r="10" cx="233.33333333333331" cy="147.8671141599079" fill="rgb(186, 176, 172)" style="stroke: rgb(0, 0, 0);"></circle><rect x="316.6666666666667" y="360" width="20" height="20" fill="rgb(160, 203, 232)"></rect><line x1="326.6666666666667" y1="121.13213024306182" x2="420" y2="98.6720403938375" style="stroke: rgb(0, 0, 0);"></line><circle id="circle_3" r="10" cx="326.6666666666667" cy="121.13213024306182" fill="rgb(160, 203, 232)" style="stroke: rgb(0, 0, 0);"></circle><rect x="410" y="360" width="20" height="20" fill="rgb(215, 181, 166)"></rect><line x1="420" y1="98.6720403938375" x2="513.3333333333333" y2="4.3789367509816657e-7" style="stroke: rgb(0, 0, 0);"></line><circle id="circle_4" r="10" cx="420" cy="98.6720403938375" fill="rgb(215, 181, 166)" style="stroke: rgb(0, 0, 0);"></circle><rect x="503.33333333333326" y="360" width="20" height="20" fill="rgb(225, 87, 89)"></rect><circle id="circle_5" r="10" cx="513.3333333333333" cy="4.3789367509816657e-7" fill="rgb(225, 87, 89)" style="stroke: rgb(0, 0, 0);"></circle><circle id="circle_kappa" r="10" cx="0" cy="52" fill="#000" style="stroke: rgb(0, 0, 0);"></circle><line x1="0" y1="52" x2="560" y2="52" style="stroke: rgb(0, 0, 0); stroke-dasharray: 3, 3;"></line></g></svg>